<?xml version="1.0" encoding="UTF-8"?>
<svg version="1.1" viewBox="0 0 1600 208" width="1280" height="1280" xmlns="http://www.w3.org/2000/svg">
<path transform="translate(721 10.9)" d="m0 0c0.901-0.00336 1.8-0.00672 2.73-0.0102 3-0.00954 5.99-0.0115 8.99-0.0125 2.09-0.00321 4.18-0.00658 6.27-0.0101 4.39-6e-3 8.79-0.00784 13.2-0.00725 5.59 1.01e-4 11.2-0.0135 16.8-0.0308 4.32-0.0112 8.65-0.0131 13-0.0126 2.06-0.00117 4.12-0.00553 6.17-0.0133 31.4-0.108 31.4-0.108 42.2 5.24 2.03 2.03 3.45 3.66 5 6 0.394 0.541 0.789 1.08 1.2 1.64 4.03 6.47 3.49 14 2.8 21.4-1.97 6.9-4.02 12.2-10.3 15.9-7.85 4.26-17.1 3.26-25.8 3.27-2.78 0.016-5.56 0.0379-8.34 0.0586-4.37 0.0304-8.74 0.0531-13.1 0.0513-3.55-7.88e-4 -7.1 0.0226-10.6 0.0619-2 0.0155-4 0.00513-6-0.00567-7.16-0.199-7.16-0.199-13.1 3.11-2.31 3.52-2.82 5.21-2.8 9.37 0.00322 0.941 0.00645 1.88 0.00977 2.85 0.00838 0.985 0.0168 1.97 0.0254 2.98 0.00451 0.993 0.00902 1.99 0.0137 3.01 0.0118 2.46 0.0283 4.91 0.0488 7.37 3.11 1.56 5.75 0.00842 8.89-1.02 1.43-0.45 2.86-0.9 4.29-1.35 2.24-0.713 4.47-1.43 6.71-2.15 15.3-4.94 32.9-10 48.6-3.6 5.76 3.29 8.49 7.93 10.6 14.1 1.71 9.22 1.67 17.9-2.69 26.2-5.12 6.09-10.4 8.91-18.3 9.75-15.7 1.22-30.2-2.64-44.9-8.07-0.697-0.251-1.39-0.501-2.11-0.759-0.904-0.339-0.904-0.339-1.83-0.685-3.06-0.691-6.03-0.558-9.16-0.487-0.00809 0.665-0.0162 1.33-0.0245 2.01-0.0865 6.96-0.186 13.9-0.293 20.9-0.0381 2.59-0.073 5.18-0.104 7.78-0.046 3.74-0.104 7.48-0.164 11.2-0.0173 1.72-0.0173 1.72-0.035 3.47-0.357 19.8-0.357 19.8-6.38 26.6-7.39 6.44-14.6 7.46-24.2 7.32-7.91-0.664-14.2-3.66-19.8-9.32-3.97-5.71-4.65-10.1-4.77-17-0.0292-0.958-0.0585-1.92-0.0886-2.9-0.255-9.82-0.144-19.6 0.1-29.5 0.0715-2.95 0.125-5.91 0.178-8.86 0.0426-1.92 0.0861-3.84 0.131-5.75 0.0147-0.864 0.0294-1.73 0.0445-2.62 0.368-13.2 3.41-27.7 11.4-38.4h2c0.229-0.737 0.459-1.47 0.695-2.23 1.56-3.31 3.3-4.78 6.18-7.02 0.864-0.686 1.73-1.37 2.62-2.08 2.29-1.52 3.83-2.25 6.51-2.67-1.09-3.25-1.09-3.25-3-6-1.67-0.107-3.33-0.185-5-0.25-7.07-0.622-12-2.75-17-7.8-7.55-9.01-7.94-18.5-6.96-29.9 1.56-6.19 5.1-11.9 10-16 2.91-1.62 5.88-2.84 9-4 3.32-1.66 7.04-1.15 10.7-1.15z" fill="#6F66FC"/>
<path transform="translate(1116,75)" d="m0 0c5.97 5.8 7.66 11.8 8.31 19.9-0.202 5.7-1.2 11.6-4.93 16.1-6.72 6.01-14.2 5.74-22.9 5.31-6.61-0.654-13.1-2.44-19.5-4.06-7.23-1.78-14.3-2.37-21.7-2.38-1.1-0.0184-1.1-0.0184-2.22-0.0371-4.08-0.011-7.59-0.00299-11.1 2.22-0.657 2.54-0.657 2.54-1 5 3.62 0.731 7.25 1.46 10.9 2.19 1.68 0.338 1.68 0.338 3.39 0.684 5.85 1.17 11.7 2.32 17.6 3.4 40.3 7.42 40.3 7.42 48.5 19.2 4.65 7.39 6.16 13.2 6.06 21.8-0.0083 0.932-0.0166 1.86-0.0251 2.82-0.246 10-2.33 17.8-9.46 25.2-16 14.5-40.6 16.9-61.4 15.9-20-1.33-42.4-4.69-56.6-20.2-4.44-7.31-5.04-15.1-3.57-23.4 1.92-6.79 5.79-11.9 11.5-15.9 12.3-6.51 25.9-1.68 38.4 1.81 6.24 1.75 12.2 3.19 18.7 3.58 0.919 0.0554 1.84 0.111 2.79 0.168 5.42 0.0465 10-0.626 15.2-2.17-0.506-2.17-1-4-2-6-2.09-0.656-2.09-0.656-4.65-1.08-0.992-0.188-1.98-0.377-3.01-0.571-1.08-0.198-2.16-0.397-3.28-0.601-9.35-1.79-18.7-3.7-27.9-5.81-1.05-0.233-2.1-0.466-3.18-0.706-14.9-3.43-27.7-8.44-36.9-21.2-2.54-4.41-2.33-8.28-2.31-13.2-0.0161-0.821-0.0322-1.64-0.0488-2.49-0.00742-9.36 3.07-16.4 9.36-23.3 23.5-22.4 81.7-21.1 107-2z" fill="#6E65F9"/>
<path transform="translate(116,69)" d="m0 0c1.56 2.19 1.56 2.19 3 5 0.867 1.38 1.74 2.75 2.62 4.12 2.42 3.77 3.48 6.84 3.69 11.3 0.0419 0.848 0.0838 1.7 0.127 2.57 0.0393 0.881 0.0786 1.76 0.119 2.67 0.0432 0.893 0.0864 1.79 0.131 2.71 0.106 2.2 0.208 4.4 0.307 6.61 1.65 0.66 3.3 1.32 5 2-0.0619-1.07-0.124-2.15-0.188-3.25 0-8.87 2.5-18.7 8.5-25.3 1.33-1.21 1.33-1.21 2.69-2.44 1.33-1.27 1.33-1.27 2.69-2.56 8.34-6.71 18.9-8.07 29.3-7.18 8.15 1.25 14.4 3.38 19.7 9.87 8.84 12.3 12.4 25.8 12.5 40.9 0.0123 1.15 0.0123 1.15 0.0248 2.32 0.0246 2.52 0.0413 5.03 0.0558 7.55 0.00532 0.865 0.0106 1.73 0.0161 2.62 0.0266 4.58 0.046 9.15 0.0605 13.7 0.0133 3.77 0.0412 7.54 0.082 11.3 0.0495 4.57 0.0741 9.15 0.0812 13.7 0.00669 1.73 0.0218 3.47 0.0459 5.2 0.242 18.5 0.242 18.5-5.56 24.6-0.99 0.33-1.98 0.66-3 1v2c-8.64 4.37-17.8 5.88-27.2 3-5.44-2.42-10.8-6.9-14-12-2.89-7.55-1.82-17-1.78-25 0.039-9.57-0.0576-19.1-0.312-28.7-0.0226-1.24-0.0451-2.48-0.0684-3.75-0.183-6.02-0.361-10.5-3.62-15.6v-2c-0.619-0.309-1.24-0.619-1.88-0.938l-4.12-2.06c-4.64-0.387-7.06-0.472-11.2 1.62-4.04 3.49-6.77 7.1-7.75 12.4-0.104 1.92-0.156 3.84-0.174 5.76-0.0135 1.16-0.027 2.32-0.0409 3.51-0.0104 1.25-0.0209 2.5-0.0316 3.78-0.0245 1.97-0.049 3.93-0.0742 5.9-0.0606 4.84-0.111 9.69-0.157 14.5-0.0257 2.72-0.0566 5.44-0.0928 8.16-0.0337 2.56-0.0597 5.12-0.077 7.67-0.123 8.63-0.411 15.6-6.54 22.1-6.36 5.55-13.2 6.22-21.4 5.96-7.43-0.852-13.1-4.15-18.4-9.39-7.25-9.8-5.15-23.5-5.13-35.2-6.76e-4 -1.65-0.00165-3.31-0.0029-4.96-0.00147-3.45 6.42e-4 -6.91 0.00534-10.4 0.00568-4.39 0.00242-8.77-0.00357-13.2-0.00365-3.41-0.00245-6.83 1.28e-4 -10.2 6.59e-4 -1.62-1.22e-4 -3.23-0.00248-4.85-0.039-34.2-0.039-34.2 6.45-42.6 9.07-8.86 24.6-12.6 35.7-4.62z" fill="#6F66FB"/>
<path transform="translate(892,68)" d="m0 0c5.59 5.02 9.6 10.6 10.3 18.2 0.123 3.97 0.154 7.93 0.154 11.9 0.0118 1.47 0.0252 2.95 0.04 4.42 0.0361 3.87 0.0563 7.73 0.0715 11.6 0.0249 6.18 0.0648 12.4 0.122 18.5 0.0162 2.15 0.0201 4.29 0.023 6.44-0.242 11.3-0.242 11.3 4.11 21.3 5.08 3.77 10 4.36 16.2 3.62 2.9-1.23 4.42-2.09 6.11-4.73 1.13-2.87 1.16-5.2 1.18-8.28 0.0201-1.82 0.0201-1.82 0.0406-3.68 0.00528-1.31 0.0106-2.63 0.016-3.98 0.0137-1.37 0.0284-2.75 0.0443-4.12 0.0482-4.36 0.081-8.72 0.112-13.1 0.0359-5.02 0.0784-10 0.136-15.1 0.0197-1.99 0.0282-3.98 0.0363-5.97 0.271-25.2 0.271-25.2 8.33-33.1 5.86-5.56 11-7.19 18.9-7.38 11 0.326 11 0.326 15.1 3.38 7.47 8.29 9.3 16.1 9.29 26.9 0.00672 0.97 0.0134 1.94 0.0204 2.94 0.0189 3.19 0.0229 6.39 0.0251 9.58 0.00643 2.23 0.0132 4.46 0.0202 6.69 0.012 4.67 0.0157 9.34 0.0145 14-2.03e-4 5.97 0.0271 11.9 0.0615 17.9 0.0223 4.61 0.0263 9.21 0.0252 13.8 0.00235 2.2 0.0111 4.4 0.0267 6.6 0.0197 3.08 0.0138 6.17 0.00179 9.25 0.0112 0.897 0.0225 1.79 0.0341 2.72-0.0757 7.7-2.03 14.4-6.83 20.5-7.51 5.76-14.4 5.82-23.7 5.06-7-1.18-12.5-5.63-17-11-3.1-6.18-3.58-13.2-4-20-1.98-0.495-1.98-0.495-4-1-0.0258 0.606-0.0516 1.21-0.0781 1.84-0.612 9.04-2.44 16.3-9.23 22.6-9.54 7.77-19.8 8.21-31.7 7.56-11.9-1.77-21-9.66-28-19-6.64-9.85-8.11-23.6-8.15-35.2-0.00336-0.682-0.00672-1.36-0.0102-2.07-0.00942-2.23-0.0114-4.47-0.0125-6.7-0.00322-1.57-0.00658-3.13-0.0101-4.7-0.00597-3.27-0.00784-6.54-0.00725-9.81 1.02e-4 -4.18-0.0136-8.36-0.0308-12.5-0.0111-3.23-0.0131-6.46-0.0126-9.69-0.00118-1.54-0.00557-3.08-0.0133-4.62-0.00986-2.16-0.0069-4.32-8.95e-4 -6.47-0.00143-1.22-0.00285-2.45-0.00432-3.71 0.582-8.22 3.55-14.2 9.56-19.7 8.09-6.49 23.8-7.72 32.7-1.75zm-41 90 1 4z" fill="#6F66FC"/>
<path transform="translate(1397,69)" d="m0 0c6.84 8.44 9.49 15.7 9.19 26.4-0.0203 1.38-0.0203 1.38-0.041 2.79-0.0351 2.26-0.0842 4.51-0.146 6.77 2.97 0.495 2.97 0.495 6 1-0.0412-1.11-0.0825-2.23-0.125-3.38 0.0475-8.98 2.25-16.1 7.12-23.6 0.557-0.887 1.11-1.77 1.69-2.69 7.51-7.51 17.3-11.1 27.8-11.4 7.1 0.308 14.4 1.13 20.5 5.09 1.27 2.14 1.27 2.14 2 4h2v2c0.99 0.33 1.98 0.66 3 1 11 15.1 11.3 33.2 11.4 51.1 0.00899 1.71 0.0181 3.41 0.0274 5.12 0.0164 3.55 0.0242 7.1 0.0271 10.7 0.00541 4.53 0.0433 9.06 0.0887 13.6 0.0298 3.51 0.037 7.03 0.038 10.5 0.00418 1.67 0.0165 3.34 0.0375 5.01 0.206 17.8 0.206 17.8-5.59 24-0.99 0.33-1.98 0.66-3 1v2c-8.44 4.27-16.5 5.53-25.8 3.34-7.26-2.55-12-7.01-16.2-13.3-1.41-9.41-1.1-19.1-1.02-28.6 1.39-22.8 1.39-22.8-3.98-44.4-0.66-0.33-1.32-0.66-2-1v-2c-8.94-1.47-8.94-1.47-17 2-4.84 4.98-6.25 10.2-6.24 17-0.00373 1.17-0.00746 2.34-0.0113 3.54 0.00413 1.25 0.00827 2.5 0.0125 3.79-0.0115 1.99-0.023 3.97-0.0362 5.96-0.0301 4.87-0.0409 9.75-0.0309 14.6 0.00475 2.74-0.00384 5.48-0.0264 8.22-0.0205 2.57-0.0216 5.14-5.19e-4 7.71-0.0844 7.56-0.98 14-5.67 20.1-0.99 0.33-1.98 0.66-3 1v2c-8.29 4.19-16.4 5.62-25.5 3.38-5.9-2.28-10.7-6.31-14.5-11.4-2.23-5.23-2.28-9.96-2.26-15.5-0.0035-0.942-0.00701-1.88-0.0106-2.86-0.00878-3.11-0.00298-6.21 0.00378-9.32-0.00135-2.17-0.00329-4.33-0.0058-6.5-0.00295-4.54 0.00133-9.08 0.0107-13.6 0.0114-5.8 0.00485-11.6-0.00714-17.4-0.00725-4.48-0.00492-8.95 2.56e-4 -13.4 0.00133-2.14-2.86e-4 -4.28-0.00496-6.42-0.00511-3 0.00271-6 0.0138-8.99-0.00405-0.875-0.0081-1.75-0.0123-2.65 0.0657-9.65 1.51-17.1 8.27-24.3 8.41-7.1 23.9-8.91 33-2z" fill="#6F66FC"/>
<path transform="translate(1315,74)" d="m0 0v2c0.681 0.165 1.36 0.33 2.06 0.5 4.35 2.22 6.86 5.78 9.94 9.5l2 2c4.41 6.42 7.57 12.8 9.88 20.2 0.304 0.973 0.304 0.973 0.615 1.97 4.82 16.4 3.69 35.4-0.49 51.8-0.255 1.05-0.51 2.11-0.773 3.19-2.35 8.27-6.72 15.3-12.2 21.8-1.48 0.495-1.48 0.495-3 1v2c-16.6 13.4-37.6 16.4-58.4 14.7-16-1.89-31.3-7.98-42.6-19.7-1.05-1.63-2.06-3.3-3-5-0.66-0.66-1.32-1.32-2-2-11-11-11.2-29.3-11.4-43.8 0.0192-15 2.24-27.3 10.4-40.2 0.405-0.754 0.81-1.51 1.23-2.29 6.85-11.9 21.1-20.7 33.9-24.7 21.7-5.73 44.1-3.68 63.9 6.99zm-76 48c-2.67 3.32-3 6.45-3 10.7 1.55 5.13 4.42 6.44 8.94 8.94 15.7 6.11 40.7 5.94 56.5 0.527 4.19-1.89 7.23-4.05 9.52-8.15 0.702-4.74 0.061-8.33-2.54-12.4-4.72-5.1-11.8-6.1-18.5-6.57-4.56-0.162-9.12-0.185-13.7-0.188-1.19-0.0122-2.38-0.0245-3.61-0.0371-11.4-0.0186-24.2 0.0851-33.7 7.22z" fill="#6E66FA"/>
<path transform="translate(290,27)" d="m0 0c4.31 4.32 7.7 9.49 8.23 15.7-0.0105 0.937-0.0209 1.87-0.0317 2.84-0.00645 1.02-0.0129 2.04-0.0195 3.1-0.0251 1.58-0.0251 1.58-0.0508 3.2-0.00902 1.07-0.018 2.15-0.0273 3.26-0.0235 2.64-0.0564 5.29-0.0977 7.93 0.871-0.0722 1.74-0.144 2.64-0.219 25.5-1.98 25.5-1.98 31.4 2.22 5.92 6.33 8.94 12.9 9.02 21.5-0.349 6.02-2.04 10.3-5.02 15.5h-3c-0.495 1.48-0.495 1.48-1 3-7 3.8-14.2 3.26-21.9 2.73-0.68-0.0474-1.36-0.0947-2.06-0.144-2-0.145-4.01-0.305-6.01-0.466-1.01-0.04-2.02-0.0799-3.06-0.121-2.11 2.11-1.16 6.79-1.17 9.71-0.00333 0.877-0.00666 1.75-0.0101 2.66-0.00507 1.86-0.00741 3.72-0.00725 5.58-0.00218 2.84-0.0203 5.69-0.0393 8.53-0.00294 1.81-0.00492 3.61-0.00586 5.42-0.0108 1.28-0.0108 1.28-0.0218 2.58 0.00461 1.2 0.00461 1.2 0.00932 2.42-0.00143 0.699-0.00285 1.4-0.00432 2.12 0.294 2.37 0.999 3.96 2.25 5.99 3.01 1.5 4.61 1.42 8 1 2.68-1.39 5.2-2.94 7.73-4.59 5.11-3.17 10.4-2.86 16.3-2.41 5.71 2.08 10.3 7.83 13.1 13.1 2.86 7.55 3.02 15.4 0.387 23.1-4.61 10.1-13.5 15.7-23.5 19.8-15.3 4.63-33.1 5.25-47.7-2.12-5.3-3.22-10.1-7.37-14.3-11.9v-2c-0.99-0.33-1.98-0.66-3-1-10.7-16.2-9.15-36.1-9-54.6 0.0267-3.37 0.0466-6.73 0.0625-10.1 0.0083-0.758 0.0166-1.52 0.0251-2.3 0.0176-3.79-0.166-7.29-1.09-11-1.01 0.0464-2.03 0.0928-3.07 0.141-1.35 0.0375-2.7 0.0739-4.05 0.109-0.665 0.0335-1.33 0.067-2.02 0.102-5.16 0.101-7.89-1.14-11.9-4.35-3.9-3.79-6.75-7.68-7.34-13.1-0.0918-8.35 0.106-15.4 6.09-21.7 6.05-5.35 10.3-5.45 18.2-5.16 2.01 0.272 4.02 0.572 6 1l-0.5-3.38c-0.604-4.89-0.661-9.7-0.5-14.6 0.0168-0.777 0.0335-1.55 0.0508-2.36 0.352-5.84 2.04-10.2 5.95-14.6 8.65-6.7 26.5-8.09 36-2z" fill="#6F66FC"/>
<path transform="translate(467,74)" d="m0 0 7 7c0.598 0.557 1.2 1.11 1.81 1.69 1.19 1.31 1.19 1.31 1.19 3.31h2v3c1.49 0.495 1.49 0.495 3 1 5.04 8.11 6.08 16.6 5 26-1.33 4.65-2.91 8.24-6 12-6.38 3.43-12.5 4.11-19.6 4.21-1.3 0.0199-2.6 0.0399-3.94 0.0604-1.4 0.017-2.81 0.0339-4.21 0.0506-1.45 0.0206-2.9 0.0416-4.35 0.063-3.8 0.055-7.6 0.104-11.4 0.153-3.88 0.0504-7.76 0.106-11.6 0.161-7.6 0.107-15.2 0.209-22.8 0.307-0.25 3.42-0.25 3.42 0 7 0.99 0.66 1.98 1.32 3 2v2c1.39 0.483 2.79 0.961 4.19 1.44 0.777 0.267 1.55 0.534 2.36 0.809 10.1 3.09 19.5 1.87 29.6-0.246 12.2-2.48 24.7-4.79 36 1.52 2.03 1.69 2.72 3.09 3.79 5.48 0.425 0.57 0.851 1.14 1.29 1.73 5.19 7.37 4.75 16.6 3.71 25.3-1.99 6.74-6.88 11.9-12.6 15.8-20.1 10.8-46.6 12.4-68.4 6.23-14.5-4.62-27.7-11.8-36-25v-2c-0.99-0.33-1.98-0.66-3-1-9.71-16.9-11.2-39.4-6.34-58 1.03-3.69 2.15-7.34 3.34-11 0.286-0.886 0.572-1.77 0.867-2.68 5.91-15.3 19.2-26 33.6-32.8 22.4-9.34 47.4-6.71 68.5 4.53zm-61.7 41.4c-1.96 2.43-2.31 4.56-2.31 7.62 0.976 1.2 0.976 1.2 2.79 1.12 0.779-0.00222 1.56-0.00444 2.36-0.00673 0.881-7.55e-5 1.76-1.51e-4 2.67-2.29e-4 1.44-0.00774 1.44-0.00774 2.9-0.0156 0.975-0.00141 1.95-0.00283 2.96-0.00429 3.13-0.00562 6.26-0.0182 9.38-0.0309 2.12-0.00501 4.23-0.00958 6.35-0.0137 5.2-0.0111 10.4-0.0278 15.6-0.0488-1.02-6.99-1.02-6.99-5.58-12.2-11.4-6.92-27.3-5.56-37.1 3.54z" fill="#6F66FB"/>
<path transform="translate(30.8 10.4)" d="m0 0c0.709-0.00234 1.42-0.00467 2.15-0.00708 7.19 0.226 12.8 2.66 18.1 7.57 7.09 7.71 7.45 14.8 7.45 24.8 0.0177 1.92 0.0177 1.92 0.0358 3.89 0.0318 3.51 0.0452 7.01 0.055 10.5 0.0132 3.7 0.0423 7.39 0.0694 11.1 0.0433 6.22 0.0754 12.4 0.1 18.7 0.0283 7.13 0.0705 14.3 0.121 21.4 0.0544 7.65 0.0998 15.3 0.142 23 0.0124 2.17 0.0263 4.35 0.0405 6.52 0.0825 13.2 0.141 26.4-0.261 39.6-0.0141 0.862-0.0283 1.72-0.0429 2.61-0.223 5.53-1.26 10.4-4.71 14.9-2.14 1.22-2.14 1.22-4 2v2c-8.19 5.01-16.2 7.14-25.8 5.52-6.18-1.68-12-4.46-16.2-9.52v-2c-0.99-0.33-1.98-0.66-3-1-2.33-4.12-2.31-8.29-2.32-12.9-0.0151-1.18-0.0151-1.18-0.0304-2.37-0.0309-2.6-0.048-5.2-0.0648-7.8-0.0188-1.85-0.0384-3.69-0.0587-5.54-0.0515-4.89-0.0909-9.78-0.128-14.7-0.0314-3.86-0.0712-7.72-0.112-11.6-0.207-19.9-0.321-39.7-0.327-59.6-4.59e-4 -0.84-9.19e-4 -1.68-0.00139-2.54-0.00298-10.3 0.0724-20.6 0.29-30.9 0.022-1.04 0.0439-2.08 0.0665-3.15 0.22-7.89 2.42-14.9 6.25-21.8 6.8-6.1 13.1-8.73 22.2-8.75z" fill="#6C66FD"/>
<path transform="translate(575)" d="m0 0c0.557 0.186 1.11 0.371 1.69 0.562 2.29 0.584 2.29 0.584 4.5 0 6.04-1.21 12.9-1.05 18.8 0.438 2.62 2.19 2.62 2.19 5 5 0.887 0.949 1.77 1.9 2.69 2.88 3.98 5.38 4.56 10.8 4.59 17.4 0.00786 1.04 0.00786 1.04 0.0159 2.1 0.0149 2.31 0.0157 4.61 0.0164 6.92 0.00763 1.66 0.0161 3.32 0.0252 4.98 0.0219 4.5 0.0307 9 0.0358 13.5 0.00365 2.81 0.00989 5.63 0.017 8.44 0.0245 9.83 0.0375 19.7 0.0411 29.5 0.00364 9.15 0.0335 18.3 0.0754 27.4 0.0347 7.87 0.0501 15.7 0.0508 23.6 7.92e-4 4.69 0.00948 9.38 0.038 14.1 0.0262 4.41 0.0284 8.83 0.0123 13.2-0.00181 1.62 0.00484 3.23 0.0208 4.85 0.153 16.5 0.153 16.5-5.62 23.1-8.1 6.46-15.8 6.64-26 6-5.14-1.08-9.18-3.39-13-7-0.722-0.681-1.44-1.36-2.19-2.06-5.27-8.54-4.1-20-4.07-29.7-0.00272-1.56-0.00628-3.11-0.0106-4.67-0.00906-4.2-0.00561-8.39 7.58e-4 -12.6 0.00509-4.4 3.6e-4 -8.81-0.00277-13.2-0.00363-7.39 0.00113-14.8 0.0107-22.2 0.0109-8.53 0.00734-17.1-0.00365-25.6-0.00908-7.34-0.0104-14.7-0.00512-22 0.00311-4.38 0.00355-8.76-0.00307-13.1-0.00579-4.11-0.00175-8.23 0.00979-12.3 0.00264-1.51 0.0019-3.01-0.00253-4.52-0.00549-2.06 0.00143-4.12 0.0114-6.19 7.54e-4 -1.15 0.00151-2.3 0.00229-3.49 0.67-8.82 3.92-15.3 10.3-21.3 1.03-1.31 2.04-2.64 3-4z" fill="#6C65FD"/>
<path transform="translate(512)" d="m0 0c0.557 0.186 1.11 0.371 1.69 0.562 2.29 0.584 2.29 0.584 4.5 0 7.34-1.47 14-0.735 20.8 2.44 5.35 4.01 8.97 10.5 10 17 0.0983 2.32 0.143 4.64 0.154 6.96 0.00657 1.03 0.00657 1.03 0.0133 2.08 0.0133 2.3 0.0196 4.6 0.0257 6.9 0.00791 1.65 0.0162 3.3 0.0248 4.95 0.0262 5.42 0.0415 10.8 0.0558 16.2 0.00536 1.87 0.0107 3.73 0.0161 5.6 0.0216 7.77 0.0404 15.5 0.0516 23.3 0.0162 11.1 0.0494 22.2 0.106 33.4 0.0387 7.83 0.0582 15.7 0.0635 23.5 0.00365 4.67 0.0156 9.34 0.0481 14 0.0301 4.4 0.0364 8.79 0.0246 13.2-2.2e-4 1.61 0.00804 3.22 0.0257 4.83 0.17 16.5 0.17 16.5-5.61 23.1-8.1 6.46-15.8 6.64-26 6-5.1-1.08-9.24-3.36-13-7v-2c-0.99-0.33-1.98-0.66-3-1-2.67-3.6-2.45-7.91-2.61-12.2-0.0375-0.866-0.0751-1.73-0.114-2.62-0.501-13.1-0.437-26.3-0.439-39.4-7.19e-4 -2.31-0.00287-4.62-0.0055-6.93-0.00919-8.09-0.0133-16.2-0.0125-24.3 6.03e-4 -7.49-0.01-15-0.0257-22.5-0.0131-6.48-0.0184-13-0.0178-19.4 2.53e-4 -3.85-0.00249-7.7-0.0132-11.6-0.00977-3.62-0.0097-7.23-0.00248-10.8 0.00152-1.94-0.00674-3.87-0.0154-5.81 0.0401-11.3 0.16-23.1 7.26-32.4 2.75-2.44 2.75-2.44 5-4 0.33-0.66 0.66-1.32 1-2z" fill="#6C65FD"/>
<path transform="translate(1182 67.5)" d="m0 0c5.23 4.87 8.35 10.4 8.67 17.6 0.044 2.64 0.053 5.28 0.0517 7.92 0.00336 1.01 0.00672 2.01 0.0102 3.05 0.00949 3.32 0.0115 6.64 0.0125 9.96 0.00321 2.31 0.00658 4.62 0.0101 6.93 0.00599 4.84 0.00784 9.68 0.00725 14.5-1.02e-4 6.2 0.0136 12.4 0.0308 18.6 0.0111 4.77 0.0131 9.54 0.0126 14.3 0.00118 2.29 0.0056 4.57 0.0133 6.86 0.0098 3.2 0.00692 6.4 8.95e-4 9.59 0.00562 0.943 0.0112 1.89 0.017 2.86-0.0391 8.16-1.66 13.5-7.3 19.5-5.97 5.38-12.9 5.26-20.6 5.04-7.77-0.637-12-3.4-17.7-8.65-5.73-9.02-3.94-22.1-3.89-32.3 0.00119-1.92 0.00164-3.85 0.00139-5.77 0.00156-4.02 0.0098-8.04 0.0233-12.1 0.0169-5.11 0.0208-10.2 0.0201-15.3 2.74e-4 -3.97 0.0058-7.94 0.013-11.9 0.00315-1.88 0.00514-3.77 0.00589-5.65 0.0291-34.9 0.0291-34.9 8.17-43.6 7.98-5.64 23.9-6.84 32.4-1.47z" fill="#6F66FC"/>
<path transform="translate(653 64.6)" d="m0 0c1.08-0.0151 1.08-0.0151 2.18-0.0305 5 0.0806 8.81 0.993 13.3 3.47 2.18 2.41 2.18 2.41 3.88 5.06 0.575 0.878 1.15 1.76 1.74 2.66 1.92 3.16 2.51 4.86 2.52 8.53 0.00571 0.892 0.0114 1.78 0.0173 2.7 0.00112 0.981 0.00224 1.96 0.00339 2.97 0.00745 1.55 0.00745 1.55 0.015 3.12 0.0147 3.42 0.0214 6.85 0.0269 10.3 0.00575 2.38 0.0115 4.75 0.0173 7.13 0.0105 4.99 0.0164 9.98 0.0198 15 0.00548 6.39 0.0295 12.8 0.058 19.2 0.0187 4.91 0.0238 9.83 0.0254 14.7 0.00302 2.35 0.011 4.71 0.0242 7.06 0.0171 3.3 0.0152 6.6 0.00869 9.9 0.0138 1.45 0.0138 1.45 0.0279 2.94-0.0414 6.76-1.35 11.7-4.38 17.8h-2v2c-8.82 5.26-17.4 6.75-27.7 4.39-5.84-2.29-9.79-6.26-13.3-11.4-1.01-3.02-1.15-5.12-1.21-8.28-0.0299-1.63-0.0299-1.63-0.0604-3.29-0.0167-1.18-0.0334-2.37-0.0507-3.58-0.0313-1.85-0.0313-1.85-0.0632-3.73-0.0549-3.33-0.105-6.66-0.153-9.99-0.0298-2.06-0.0612-4.12-0.093-6.18-0.251-16.3-0.472-32.6-0.499-48.9-0.00259-0.699-0.00518-1.4-0.00784-2.12-0.08-26.9-0.08-26.9 6.32-34.6 6.45-5.44 11.2-6.74 19.4-6.81z" fill="#6F66FC"/>
<path transform="translate(512)" d="m0 0c0.557 0.186 1.11 0.371 1.69 0.562 2.29 0.584 2.29 0.584 4.5 0 7.34-1.47 14-0.735 20.8 2.44 5.34 4.01 8.97 10.5 10 17 0.08 2.28 0.108 4.55 0.0977 6.83-0.00322 1.29-0.00645 2.58-0.00977 3.92-0.00835 1.35-0.0168 2.71-0.0254 4.06-0.00502 1.37-0.00958 2.75-0.0137 4.12-0.0118 3.35-0.0282 6.71-0.0488 10.1h-1v-5h-2c-0.33-0.66-0.66-1.32-1-2v2h-2v5c-1.81 0.688-1.81 0.688-4 1-1.75-1.44-1.75-1.44-3-3 1.98-0.495 1.98-0.495 4-1-3.53-2.35-5.03-2.21-9.19-2.12-1.09 0.018-2.17 0.0361-3.29 0.0547-0.831 0.0232-1.66 0.0464-2.52 0.0703h1 2v4c-0.99 0.66-1.98 1.32-3 2v4c-1.49 0.495-1.49 0.495-3 1-2.43-3.64-2.16-5.71-2-10-2.36 2.36-2.49 3.78-3 7h-2v-11c-0.66-0.33-1.32-0.66-2-1-0.169 1.44-0.335 2.87-0.5 4.31-0.0928 0.801-0.186 1.6-0.281 2.43-0.267 2.38-0.267 2.38-0.219 5.26h-5c0.0533 1.47 0.0533 1.47 0.108 2.97 0.131 3.64 0.254 7.28 0.375 10.9 0.0533 1.57 0.109 3.15 0.166 4.72 0.0822 2.26 0.157 4.53 0.231 6.79 0.027 0.701 0.0541 1.4 0.0819 2.12 0.101 3.33 0.0989 6.3-0.961 9.48h4v2h3c-0.33 1.32-0.66 2.64-1 4-1.98-0.33-3.96-0.66-6-1 0.33 5.94 0.66 11.9 1 18 2.31 0.33 4.62 0.66 7 1 0.978 2.93 1.13 4.88 1.12 7.94 0.00387 1.28 0.00387 1.28 0.00781 2.59-0.124 2.3-0.489 4.27-1.13 6.47h-3v3h3v2h-3v3h5v4c-4.75 1.13-4.75 1.13-7 0v2h2v2h-3v2h-2v4c0.66 0.33 1.32 0.66 2 1h-2v4h2c-0.495 6.44-0.495 6.44-1 13 2.97 0.66 5.94 1.32 9 2v4c3.01 0.934 3.87 1.04 7 0 0.66 0.33 1.32 0.66 2 1 0.33-1.32 0.66-2.64 1-4 2.33-0.381 4.66-0.713 7-1 1 1 1 1 1.06 4.06-0.0206 0.969-0.0412 1.94-0.0625 2.94h3c0.33-2.31 0.66-4.62 1-7h1v7h2v-2h2v-6c1.94-0.562 1.94-0.562 4-1 2.37 2.37 1.37 8.68 1.38 12-0.121 6.33-0.845 11.3-5.38 16-8.01 6.52-15.9 6.63-26 6-5.1-1.08-9.24-3.36-13-7v-2c-0.99-0.33-1.98-0.66-3-1-2.67-3.6-2.45-7.91-2.61-12.2-0.0375-0.866-0.0751-1.73-0.114-2.62-0.501-13.1-0.437-26.3-0.439-39.4-7.19e-4 -2.31-0.00287-4.62-0.0055-6.93-0.00919-8.09-0.0133-16.2-0.0125-24.3 6.03e-4 -7.49-0.01-15-0.0257-22.5-0.0131-6.48-0.0184-13-0.0178-19.4 2.53e-4 -3.85-0.00249-7.7-0.0132-11.6-0.00977-3.62-0.0097-7.23-0.00248-10.8 0.00152-1.94-0.00674-3.87-0.0154-5.81 0.0401-11.3 0.16-23.1 7.26-32.4 2.75-2.44 2.75-2.44 5-4 0.33-0.66 0.66-1.32 1-2z" fill="#6F66FC"/>
<path transform="translate(283,136)" d="m0 0 1 2h4c0.33-0.66 0.66-1.32 1-2-0.33 2.64-0.66 5.28-1 8h3v3c0.66 0.495 1.32 0.99 2 1.5 0.66 0.495 1.32 0.99 2 1.5v3c2.48 0.99 2.48 0.99 5 2v-2c1.67 0.186 1.67 0.186 3.38 0.375 5.05 0.045 8.32-2.24 12.4-4.96 5.03-3.23 10.4-2.85 16.2-2.41 5.71 2.08 10.3 7.83 13.1 13.1 2.86 7.55 3.02 15.4 0.387 23.1-4.61 10.1-13.5 15.7-23.5 19.8-15.3 4.63-33.1 5.25-47.7-2.12-5.3-3.22-10.1-7.37-14.3-11.9v-2c-0.99-0.33-1.98-0.66-3-1-7.28-11-8.46-22.2-8-35 0.66 0.66 1.32 1.32 2 2v-6c0.99-0.33 1.98-0.66 3-1 0.99 0.66 1.98 1.32 3 2 1.66 0.385 3.32 0.728 5 1v9c-0.66 0.33-1.32 0.66-2 1v2h2v2c-0.66 0.33-1.32 0.66-2 1v2c3.25 1.08 3.87 0.853 7 0 2.89 0 5.31 0.14 8.12 0.562 3.66 0.77 3.66 0.77 5.88-0.562 0.99 0.33 1.98 0.66 3 1 0.33-3.3 0.66-6.6 1-10-1.65 0.33-3.3 0.66-5 1 0.33-1.98 0.66-3.96 1-6-0.99-0.33-1.98-0.66-3-1 0.33-0.99 0.66-1.98 1-3h2v-2h-2c0.33-0.99 0.66-1.98 1-3 1.49 0.495 1.49 0.495 3 1-0.495-0.99-0.495-0.99-1-2-2.53-0.656-2.53-0.656-5-1v-2h6v-2z" fill="#6F66FB"/>
<path transform="translate(30.8 10.4)" d="m0 0c0.709-0.00234 1.42-0.00467 2.15-0.00708 7.19 0.226 12.8 2.66 18.1 7.57 6.93 7.55 7.43 14.3 7.34 24.2 6.57e-4 1.82 6.57e-4 1.82 0.00133 3.67-0.00173 3.3-0.0167 6.6-0.0377 9.9-0.0188 3.46-0.0205 6.91-0.0241 10.4-0.00931 6.54-0.0339 13.1-0.064 19.6-0.0336 7.45-0.05 14.9-0.0651 22.3-0.0313 15.3-0.084 30.6-0.151 45.9h-6v-9h3c-0.0116-0.615-0.0232-1.23-0.0352-1.86-0.00902-0.808-0.018-1.62-0.0273-2.45-0.0116-0.801-0.0232-1.6-0.0352-2.43 0.0977-2.26 0.0977-2.26 1.1-5.26l-4-2v-28c0.99-0.33 1.98-0.66 3-1 0.33-4.95 0.66-9.9 1-15h-4v-7h4v-2c-0.99-0.33-1.98-0.66-3-1 0.99-1.32 1.98-2.64 3-4h-4c-0.495-2.97-0.495-2.97-1-6-0.99-0.33-1.98-0.66-3-1 0.495 2.47 0.495 2.47 1 5-0.99-0.33-1.98-0.66-3-1-0.495 0.99-0.495 0.99-1 2-0.99-0.495-0.99-0.495-2-1v2h3v21h-2v-4c-0.66 1.32-1.32 2.64-2 4v-4c-0.99-0.33-1.98-0.66-3-1h2v-2h-2v-3h2v-2h-2v-6c-2.31-0.33-4.62-0.66-7-1-0.11-1.12-0.219-2.24-0.332-3.39-0.159-1.47-0.32-2.95-0.48-4.42-0.0703-0.738-0.141-1.48-0.213-2.24-0.46-4.2-0.46-4.2-2.36-7.9-1.75-1.24-1.75-1.24-4.61-2.05-0.33 0.66-0.66 1.32-1 2l-4-2v7h-2v-7h-3v14c-0.66-0.66-1.32-1.32-2-2 0.0206 1.26 0.0412 2.52 0.0625 3.81 0.0464 2.83-0.146 4.44-1.06 7.19-0.0889 1.98-0.118 3.96-0.114 5.94 7.55e-5 1.22 1.51e-4 2.44 2.29e-4 3.7 0.00516 1.32 0.0103 2.64 0.0156 4 0.00187 1.36 0.00329 2.73 0.00429 4.09 0.00382 3.59 0.0136 7.17 0.0247 10.8 0.0102 3.66 0.0148 7.32 0.0198 11 0.0107 7.18 0.0278 14.4 0.0488 21.5h-4c-1.49-2.98-1.18-6.03-1.21-9.3-0.0099-0.751-0.0198-1.5-0.03-2.28-0.0316-2.49-0.0564-4.98-0.0811-7.47-0.0206-1.72-0.0416-3.45-0.063-5.17-0.0552-4.54-0.105-9.08-0.153-13.6-0.0502-4.63-0.106-9.26-0.161-13.9-0.108-9.09-0.209-18.2-0.307-27.3l-2-1c-0.118-4.1-0.188-8.21-0.25-12.3l-0.102-3.48c-0.102-8.99 1.54-16.2 5.91-24 6.8-6.1 13.1-8.73 22.2-8.75z" fill="#6F66FD"/>
<path transform="translate(77,100)" d="m0 0c0.0103 0.617 0.0206 1.23 0.0312 1.87 0.109 6.46 0.223 12.9 0.341 19.4 0.0431 2.41 0.0848 4.81 0.125 7.22 0.0582 3.47 0.122 6.94 0.186 10.4 0.0251 1.6 0.0251 1.6 0.0506 3.22 0.124 6.35 0.522 12.6 1.27 18.9 2.25-9.96 2.12-19.9 2.06-30.1-0.00503-1.45-0.00959-2.9-0.0137-4.36-0.0109-3.53-0.0281-7.05-0.0488-10.6 2.1-0.081 4.21-0.139 6.31-0.188 1.76-0.0522 1.76-0.0522 3.55-0.105 3.14 0.293 3.14 0.293 5.01 1.64 1.46 2.15 1.78 4.11 2.12 6.66h8v6h3v-6h2c0.495 5.44 0.495 5.44 1 11h2v8c-2.88-1.29-4.87-2.66-7-5v2h2c0.495 3.46 0.495 3.46 1 7h2v8h2c-0.186-0.722-0.371-1.44-0.562-2.19-0.457-2.94-0.173-4.95 0.562-7.81h2c1 6.62 1 6.62 1 10h2v-9h4c1.82 4.66 2.29 8.83 2.27 13.8 0.00287 1.09 0.00287 1.09 0.0058 2.21 0.00135 1.54-0.00229 3.07-0.0107 4.61-0.0107 2.33-8.78e-5 4.66 0.0127 7-0.00132 1.5-0.00389 3-0.00781 4.5 0.00405 0.689 0.0081 1.38 0.0123 2.09-0.069 7.23-1.52 13-6.47 18.2-6.36 5.55-13.2 6.22-21.4 5.96-7.43-0.852-13.1-4.15-18.4-9.39-7.34-9.92-5.14-23.9-5.1-35.7 0.00187-1.69 0.00329-3.38 0.00429-5.06 0.00379-4.41 0.0136-8.81 0.0247-13.2 0.0103-4.51 0.0148-9.02 0.0198-13.5 0.0107-8.83 0.0277-17.7 0.0488-26.5 2-1 2-1 3-1z" fill="#6C65FD"/>
<path transform="translate(712,11)" d="m0 0c12.1-0.0466 24.2-0.082 36.3-0.104 5.62-0.0104 11.2-0.0244 16.9-0.0473 5.44-0.0219 10.9-0.0337 16.3-0.0389 2.06-0.00366 4.13-0.0108 6.19-0.0217 31.4-0.159 31.4-0.159 42.3 5.21 2.03 2.03 3.45 3.66 5 6 0.592 0.812 0.592 0.812 1.2 1.64 4.03 6.47 3.49 14 2.8 21.4-1.97 6.9-4.02 12.2-10.3 15.9-7.19 3.9-15.4 3.26-23.3 3.22-1.1-0.00141-2.2-0.00283-3.33-0.00429-3.49-0.00557-6.99-0.0181-10.5-0.0309-2.38-0.00502-4.75-0.00958-7.13-0.0137-5.81-0.011-11.6-0.0277-17.4-0.0488v-2h-3c-0.33-0.99-0.66-1.98-1-3 0.495-0.99 0.495-0.99 1-2h-4v-2h4v-3h-4v-2h4v-2h2v2h3v-2h2v2h2c-0.33 1.32-0.66 2.64-1 4 1.32 0.33 2.64 0.66 4 1v-2h-2c0.33-0.99 0.66-1.98 1-3 3 1 3 1 4 2v-2c1.49 0.495 1.49 0.495 3 1 2.08-4.15 1.84-6.51 1-11 0.438-2.88 0.438-2.88 1-5 1.32 0.66 2.64 1.32 4 2-0.99-2.48-0.99-2.48-2-5 1.49 0.495 1.49 0.495 3 1l1-3c-0.598-0.124-1.2-0.248-1.81-0.375-2.19-0.625-2.19-0.625-5.19-2.62-0.33 1.32-0.66 2.64-1 4h-2v-5l-1 5h-4c0.33-1.32 0.66-2.64 1-4-4.48-3.36-7.61-3.27-13-3v-9c-0.936 0.00524-1.87 0.0105-2.84 0.0159-34.3 0.167-34.3 0.167-49.2-1.02 0.33-0.99 0.66-1.98 1-3z" fill="#6C65FD"/>
<path transform="translate(271 78.4)" d="m0 0c3.62 2.16 3.85 4.49 4.9 8.44 0.923 2.71 2.29 3.7 4.72 5.12v2c1.32 0.33 2.64 0.66 4 1-0.495 1.48-0.495 1.48-1 3-0.179 2.39-0.32 4.79-0.438 7.19-0.306 5.49-0.95 10.5-2.56 15.8 2.31 0.33 4.62 0.66 7 1v-5h1v5h4v-5h1c0.0297 0.885 0.0297 0.885 0.0601 1.79 0.0953 2.68 0.205 5.35 0.315 8.02 0.0309 0.929 0.0619 1.86 0.0938 2.81 0.058 1.34 0.058 1.34 0.117 2.71 0.0314 0.822 0.0628 1.64 0.0952 2.49 0.203 2.47 0.203 2.47 2.32 5.18 0.397 1.78 0.724 3.57 1 5.38 0.588 3.81 1.45 7.08 3 10.6-4.19-1.82-6.18-2.83-8-7-2.03-1.73-2.03-1.73-4-3h2v-2h-3v-6h-11v2h5c0.33 0.99 0.66 1.98 1 3h-3c-0.33 0.66-0.66 1.32-1 2h2v2h-2v3c0.99 0.495 0.99 0.495 2 1 0.688 2 0.688 2 1 4-0.33 0.33-0.66 0.66-1 1h4v13c-0.33-0.99-0.66-1.98-1-3h-3c-0.66 0.99-1.32 1.98-2 3v-3h-11c-0.33 0.99-0.66 1.98-1 3-0.33-0.99-0.66-1.98-1-3h-3c-0.33 0.99-0.66 1.98-1 3v-4h-2c-0.33-0.99-0.66-1.98-1-3h3v-2h-2c-0.33-0.99-0.66-1.98-1-3h3v-9c-0.763 0.0206-1.53 0.0412-2.31 0.0625-2.69-0.0625-2.69-0.0625-5.69-1.06-2.36 2.36-2.49 3.78-3 7-0.33-0.99-0.66-1.98-1-3-0.66-0.33-1.32-0.66-2-1 0.00524-1.12 0.0105-2.25 0.0159-3.41 0.0181-4.18 0.0296-8.37 0.0391-12.6 0.00502-1.81 0.0118-3.62 0.0205-5.43 0.0122-2.6 0.0178-5.21 0.0222-7.81 0.00516-0.805 0.0103-1.61 0.0156-2.44 3.9e-4 -3.92-0.142-7.53-1.11-11.4-0.99-0.33-1.98-0.66-3-1 0.309-0.908 0.619-1.81 0.938-2.75 0.79-2.42 1.49-4.78 2.06-7.25h-5v-1h6c-0.33-1.32-0.66-2.64-1-4h-5v-1h6v-3h4c0.227-0.743 0.454-1.48 0.688-2.25 4.02-8.42 10.7-7.35 18.7-6.31z" fill="#6C65FD"/>
<path transform="translate(939,108)" d="m0 0c6.93 0.495 6.93 0.495 14 1v5h5v4c0.99-0.66 1.98-1.32 3-2-0.33-1.32-0.66-2.64-1-4h3v-2h3v-2c1.65 0.66 3.3 1.32 5 2v-2c3.88 1.88 3.88 1.88 5 3 0.0408 2 0.0425 4 0 6 0.99 0.33 1.98 0.66 3 1h-2c0.495 0.99 0.495 0.99 1 2h2v-12h1c0.928 12.6 1.19 25.1 1.19 37.8 0.00221 3.13 0.0205 6.26 0.0393 9.4 0.00293 2.03 0.00492 4.06 0.00586 6.09 0.00719 0.918 0.0144 1.84 0.0218 2.78-0.0226 6.51-0.906 12.6-2.25 19-0.58-0.33-1.16-0.661-1.76-1-3.44-1.53-6.83-0.947-10.5-0.624-0.745 0.0567-1.49 0.113-2.26 0.172-1.83 0.141-3.66 0.296-5.49 0.453v5c-7.97 1.44-7.97 1.44-12.1-0.312-0.639-0.557-1.28-1.11-1.94-1.69v-2c1.98-0.495 1.98-0.495 4-1-1.32-0.66-2.64-1.32-4-2v-2c2.48-0.495 2.48-0.495 5-1-1.32-0.33-2.64-0.66-4-1-0.168-1.62-0.334-3.25-0.5-4.88-0.0928-0.905-0.186-1.81-0.281-2.74-0.219-2.38-0.219-2.38-0.219-4.38h4v5h2c-0.206-0.701-0.413-1.4-0.625-2.12-0.454-3.48 0.35-5.65 1.62-8.88 1.46-0.195 2.92-0.381 4.38-0.562 1.22-0.157 1.22-0.157 2.46-0.316 2.16-0.121 2.16-0.121 4.16 0.879v-2h-10v-2h2v-3h5c-0.33-2.31-0.66-4.62-1-7h-4v-4c-1.36 0.0619-1.36 0.0619-2.75 0.125-3.16-0.122-4.73-0.261-7.25-2.12-0.33-1.32-0.66-2.64-1-4v13h-2c-0.495-1.49-0.495-1.49-1-3h2c-0.33-0.66-0.66-1.32-1-2-1.32 0.66-2.64 1.32-4 2v-6h3c0.33-1.98 0.66-3.96 1-6h-3c-0.98-2.94-1.12-4.83-1.1-7.89 0.00322-0.938 0.00645-1.88 0.00977-2.84 0.0126-1.46 0.0126-1.46 0.0254-2.96 0.00451-0.988 0.00902-1.98 0.0137-2.99 0.0118-2.44 0.0297-4.88 0.0488-7.32z" fill="#6C65FD"/>
<path transform="translate(674,91)" d="m0 0c2.41 3.62 2.27 6.23 2.23 10.4 2.92e-4 0.751 5.84e-4 1.5 8.85e-4 2.28-0.00139 2.48-0.017 4.97-0.0326 7.45-0.00373 1.72-0.00658 3.44-0.00858 5.17-0.00764 4.53-0.0273 9.06-0.0494 13.6-0.0205 4.63-0.0296 9.25-0.0397 13.9-0.0214 9.07-0.0556 18.1-0.0977 27.2h-2c-1.27-3.87-1.11-7.73-1.06-11.8 0.00451-0.697 0.00902-1.39 0.0137-2.11 0.0117-1.71 0.0297-3.42 0.0488-5.14h-4c-0.144 1.11-0.289 2.23-0.438 3.38-0.562 3.62-0.562 3.62-1.56 5.62h-2v3h2v2h-2v3c-1.98 0.495-1.98 0.495-4 1 1.49 0.495 1.49 0.495 3 1h-3v4c1.49 0.495 1.49 0.495 3 1h-6c-0.33 0.66-0.66 1.32-1 2-3.11 0-5.11-0.174-8-1v-7h-2c-1.29-4.12-2.26-7.67-2-12h-2c-0.33 0.99-0.66 1.98-1 3 0.99 0.33 1.98 0.66 3 1h-9v-5c-0.33-0.99-0.66-1.98-1-3 0.33-0.99 0.66-1.98 1-3h2v-4c1.32 0.33 2.64 0.66 4 1 0.33-1.32 0.66-2.64 1-4h-5v-11h4c-0.495-1.49-0.495-1.49-1-3-0.0685-1.89-0.0848-3.79-0.0625-5.69 0.00902-0.994 0.018-1.99 0.0273-3.01 0.0116-0.759 0.0232-1.52 0.0352-2.3 3 1 3 1 5 2-0.0116-0.759-0.0232-1.52-0.0352-2.3-0.00902-0.994-0.018-1.99-0.0273-3.01-0.0116-0.986-0.0232-1.97-0.0352-2.99 0.0977-2.7 0.0977-2.7 1.1-5.7 1.65-0.33 3.3-0.66 5-1v-3h2v3h3v-3h2c0.247 0.639 0.495 1.28 0.75 1.94 1.07 2.25 1.07 2.25 3.38 2.81 0.619 0.0825 1.24 0.165 1.88 0.25v2c0.66 0.33 1.32 0.66 2 1-0.66 0.33-1.32 0.66-2 1v3h3v-3h2v3h3c-0.33-3.3-0.66-6.6-1-10h-2v6h-2v-6h-5c0.186-0.598 0.371-1.2 0.562-1.81 0.658-2.35 0.658-2.35-0.562-5.19 0.33-0.66 0.66-1.32 1-2 3.28-0.951 4.7-1.1 8 0v-4c0.66-0.33 1.32-0.66 2-1z" fill="#6C66FD"/>
<path transform="translate(899,102)" d="m0 0c0.495 0.99 0.495 0.99 1 2h2c0.0121 0.838 0.0121 0.838 0.0245 1.69 0.0864 5.84 0.186 11.7 0.293 17.5 0.0382 2.18 0.073 4.35 0.104 6.53 0.0459 3.14 0.104 6.28 0.164 9.41 0.0116 0.965 0.0231 1.93 0.035 2.92 0.0808 9.53 0.0808 9.53 4 17.9 0.454 0.33 0.908 0.66 1.38 1-0.66 0.99-1.32 1.98-2 3-4.33-4.33-8.67-8.67-13-13h3v-7c-0.99-0.495-0.99-0.495-2-1v2c-1.63 1.38-3.29 2.72-5 4 0.99 0.66 1.98 1.32 3 2-0.495 0.99-0.495 0.99-1 2-2.21 0.449-2.21 0.449-4.94 0.688-0.896 0.0864-1.79 0.173-2.71 0.262-2.35 0.0508-2.35 0.0508-4.35-0.949v3h-5v3c-5.35 1-9.62 0.849-15 0 0.66 0.33 1.32 0.66 2 1v2h-3v2h-2v-11h2v-3h-2v-2h2v-2h-2c-0.0271-1.44-0.0465-2.87-0.0625-4.31-0.0116-0.801-0.0232-1.6-0.0352-2.43 0.0977-2.26 0.0977-2.26 1.1-5.26 0.227-2.57 0.416-5.12 0.562-7.69 0.0432-0.702 0.0864-1.4 0.131-2.13 0.106-1.73 0.207-3.46 0.307-5.19h5v-16c0.33 1.32 0.66 2.64 1 4h2v7c0.33-3.63 0.66-7.26 1-11h21c1 4 1 4 1 6 3.39 1.51 3.39 1.51 7 2v-4c0.66-0.33 1.32-0.66 2-1 0.652-2.02 0.652-2.02 1-4z" fill="#6C65FD"/>
<path transform="translate(3,146)" d="m0 0h1c0.33 7.26 0.66 14.5 1 22v-20c0.99 0.33 1.98 0.66 3 1v12h2c-0.33-4.29-0.66-8.58-1-13h2c1.32 2.64 1.1 4.68 1.06 7.62-0.00902 1-0.018 2.01-0.0273 3.04-0.0116 0.771-0.0232 1.54-0.0352 2.34 0.99 0.33 1.98 0.66 3 1 0.33-1.32 0.66-2.64 1-4h2v-3h4v2h3v-2h2v2c0.99 0.33 1.98 0.66 3 1v2c0.66-0.99 1.32-1.98 2-3v2h4v2c1.98-0.33 3.96-0.66 6-1-1.98 0.99-1.98 0.99-4 2v3h9c0.495 1.98 0.495 1.98 1 4 0.928 0.103 1.86 0.206 2.81 0.312 4.39 0.947 4.39 0.947 6.19 3.69 1.91 7.48 1.69 13.5-1.73 20.3-1.52 2-2.97 2.71-5.27 3.66v2c-8.19 5.01-16.2 7.14-25.8 5.52-6.18-1.68-12-4.46-16.2-9.52v-2c-0.99-0.33-1.98-0.66-3-1-2.69-4.51-2.26-9.38-2.2-14.5 0.00283-0.903 0.00566-1.81 0.00858-2.74 0.0112-2.87 0.0363-5.75 0.0617-8.62 0.01-1.95 0.0192-3.9 0.0273-5.86 0.022-4.78 0.0565-9.55 0.0977-14.3z" fill="#6F66FC"/>
<path transform="translate(1172 9.62)" d="m0 0c0.677 0.0692 1.35 0.138 2.05 0.21 5.67 0.76 9.79 2.72 13.4 7.2 0.385 0.669 0.771 1.34 1.17 2.03 0.398 0.672 0.797 1.34 1.21 2.04 2.16 4.19 2.16 8.06 2.17 12.7 0.0122 0.691 0.0245 1.38 0.0371 2.09 0.0162 5.76-0.818 10.8-3.85 15.8-5.15 5.02-10.6 6.82-17.7 6.86-0.846-0.0155-1.69-0.0309-2.56-0.0469-1.26 0.0232-1.26 0.0232-2.55 0.0469-7.22-0.0445-13.3-1.82-18.8-6.51-0.527-0.651-1.05-1.3-1.6-1.97-0.818-0.973-0.818-0.973-1.65-1.96-4.28-6.36-4.33-13.2-2.95-20.6 1.94-6.71 5.48-11.6 11.3-15.3 1.05-0.392 2.1-0.784 3.19-1.19 0.599-0.227 1.2-0.454 1.82-0.688 5.17-1.57 10.1-1.28 15.4-0.688z" fill="#6F66FC"/>
<path transform="translate(668,12)" d="m0 0c5.71 4.32 8.54 11.1 10 18 0.906 8.11-0.334 14.3-5 21-3.26 3.55-7.27 6.61-12.1 7.31-20.7 0.585-20.7 0.585-27.9-5.31-4.38-4.15-6.85-7.34-7.2-13.5-0.0212-1.4-0.0366-2.8-0.0469-4.2-0.0206-0.691-0.0412-1.38-0.0625-2.09-0.0386-5.13 1.04-8.56 3.31-13.2 0.392-0.887 0.784-1.77 1.19-2.69 8.36-10.7 26.6-9.73 37.8-5.31z" fill="#6F66FC"/>
<path transform="translate(575)" d="m0 0c0.557 0.186 1.11 0.371 1.69 0.562 2.29 0.584 2.29 0.584 4.5 0 6.04-1.21 12.9-1.05 18.8 0.438 2.62 2.19 2.62 2.19 5 5 0.887 0.949 1.77 1.9 2.69 2.88 4.27 5.78 4.6 11.6 4.44 18.6-0.00902 0.732-0.018 1.46-0.0273 2.22-0.0233 1.78-0.0592 3.56-0.0977 5.35h-1c-0.33-3.3-0.66-6.6-1-10h-2c-0.66 4.29-1.32 8.58-2 13-4.95 0.33-9.9 0.66-15 1v2h-2v-2c-4.29-0.33-8.58-0.66-13-1v5c-0.66-0.66-1.32-1.32-2-2-0.33 0.66-0.66 1.32-1 2h-3c-0.33-0.66-0.66-1.32-1-2-0.33 3.63-0.66 7.26-1 11-0.99-0.33-1.98-0.66-3-1-0.33-9.57-0.66-19.1-1-29h-1c-0.891-5.64 1.42-9.13 4.34-13.7 1.91-2.62 4-4.44 6.66-6.27 0.33-0.66 0.66-1.32 1-2z" fill="#6F66FC"/>
<path transform="translate(178,127)" d="m0 0h6v3c0.784-0.206 1.57-0.412 2.38-0.625 1.3-0.186 1.3-0.186 2.62-0.375 0.66 0.66 1.32 1.32 2 2h-4v2h-3v2c1.09-0.165 2.19-0.33 3.31-0.5 3.69-0.5 3.69-0.5 6.69-0.5 0.66-0.99 1.32-1.98 2-3 2.62-0.688 2.62-0.688 5-1 0.33-0.99 0.66-1.98 1-3 1.97 1.19 1.97 1.19 4 3 0.481 2.3 0.481 2.3 0.454 5.02-3.02e-4 1.02-6.04e-4 2.04-9.16e-4 3.09-0.0206 1.1-0.0413 2.2-0.0626 3.33-0.00566 1.13-0.0113 2.26-0.0172 3.42-0.0224 3.61-0.0726 7.21-0.123 10.8-0.0201 2.44-0.0383 4.89-0.0547 7.33-0.0441 5.99-0.111 12-0.195 18-2.71 1.35-4.99 1-8 1-0.924 0.246-0.924 0.246-1.87 0.496-2.52 0.595-4.8 0.6-7.38 0.566-0.892-0.00902-1.78-0.018-2.7-0.0273-0.675-0.0116-1.35-0.0232-2.05-0.0352-0.33-0.66-0.66-1.32-1-2-3.03-0.658-3.03-0.658-6-1v-9c0.722-0.124 1.44-0.248 2.19-0.375 2.79-0.621 5.23-1.4 7.81-2.62 0.33-0.66 0.66-1.32 1-2-1.98 0.495-1.98 0.495-4 1v-2c-1.95-0.186-1.95-0.186-3.94-0.375-2.21-0.211-2.21-0.211-4.06-0.625-0.33-0.66-0.66-1.32-1-2-1.32-0.33-2.64-0.66-4-1v-15c0.66-0.33 1.32-0.66 2-1v-15h5v-3z" fill="#6C65FD"/>
<path transform="translate(1459,122)" d="m0 0h13c0.33 4.29 0.66 8.58 1 13 0.66-0.33 1.32-0.66 2-1 0.407-2.32 0.744-4.66 1-7 0.99-0.33 1.98-0.66 3-1 0.66 1.65 1.32 3.3 2 5-0.99 0.99-1.98 1.98-3 3 0.99 0.33 1.98 0.66 3 1 0.103-0.639 0.206-1.28 0.312-1.94 0.34-1.02 0.34-1.02 0.688-2.06 0.99-0.33 1.98-0.66 3-1 2.36 4.62 2.21 8.65 2.05 13.7-0.0203 0.829-0.0406 1.66-0.0615 2.51-0.0454 1.75-0.0962 3.49-0.152 5.24-0.0834 2.67-0.145 5.35-0.205 8.02-0.0469 1.7-0.095 3.4-0.145 5.1-0.0178 0.8-0.0357 1.6-0.054 2.42-0.135 3.82-0.266 5.76-2.43 9.01-0.66-1.32-1.32-2.64-2-4-1.98 0.495-1.98 0.495-4 1 0.33 0.99 0.66 1.98 1 3h-2c0.33 0.99 0.66 1.98 1 3-0.99 1.65-1.98 3.3-3 5-4.95-0.66-9.9-1.32-15-2v-2h3v-2c-0.99-0.33-1.98-0.66-3-1v-2c0.99-0.66 1.98-1.32 3-2-0.33-1.98-0.66-3.96-1-6 1.48-0.495 1.48-0.495 3-1 1.32 1.32 2.64 2.64 4 4v-3c-0.66-0.33-1.32-0.66-2-1v-1h-3v-2c-1.32-0.33-2.64-0.66-4-1v-3c-1.32-0.33-2.64-0.66-4-1 0.165-0.577 0.33-1.16 0.5-1.75 0.645-2.52 0.645-2.52 0.5-6.25 0.613-1.69 1.27-3.36 2-5-0.99-0.33-1.98-0.66-3-1 0.99-0.33 1.98-0.66 3-1-0.773-0.526-0.773-0.526-1.56-1.06-1.44-1.94-1.44-1.94-1.12-5.62 0.227-1.09 0.454-2.19 0.688-3.31h-2v-2c0.66-0.33 1.32-0.66 2-1 0.685-1.89 0.685-1.89 1.12-4.06 0.289-1.3 0.578-2.6 0.875-3.94z" fill="#6C65FD"/>
<path transform="translate(1057,70)" d="m0 0c10.8-0.0977 10.8-0.0977 14 0 0.33 0.33 0.66 0.66 1 1 2.33 0.368 4.66 0.702 7 1v2h5c0.33 1.32 0.66 2.64 1 4 1.01 0.0387 1.01 0.0387 2.05 0.0781 7.24 0.461 7.24 0.461 10.6 2.67 1.31 2.25 1.31 2.25 1.06 5-0.247 0.743-0.495 1.48-0.75 2.25h2c0.495-1.48 0.495-1.48 1-3 0.66 0.33 1.32 0.66 2 1v2h2v2c1.65 0.33 3.3 0.66 5 1 0.495 1.98 0.495 1.98 1 4 1.32 0.33 2.64 0.66 4 1 0.313 6.57-0.221 12-3 18-2.48 2.48-3.96 2.26-7.36 2.28-0.706-0.00902-1.41-0.018-2.14-0.0273-0.717-0.00387-1.43-0.00773-2.17-0.0117-5.6-0.0907-10.9-0.778-16.3-2.24v-1c6.43-0.495 6.43-0.495 13-1-0.33-1.65-0.66-3.3-1-5h-5c-0.33-0.99-0.66-1.98-1-3h-6c0.99-1.32 1.98-2.64 3-4-0.99-0.66-1.98-1.32-3-2 0.536-0.33 1.07-0.66 1.62-1 1.61-1.87 1.61-1.87 1.13-3.98-0.52-2.02-1.13-4.02-1.75-6.02-0.88 0.144-1.76 0.289-2.67 0.438-1.16 0.186-2.32 0.371-3.52 0.562-1.15 0.186-2.3 0.371-3.48 0.562-2.84 0.372-5.48 0.523-8.33 0.438v-2c-3.63-0.33-7.26-0.66-11-1 0.33-5.28 0.66-10.6 1-16z" fill="#6C65FD"/>
<path transform="translate(103,165)" d="m0 0h2v6h5v5h5v2h-2v3h2v-2c3.75-1.12 3.75-1.12 6 0 0.33-1.98 0.66-3.96 1-6 2.96 5.93 3.58 9.76 2.38 16.5-2.32 5.9-5.73 9.95-11.4 12.9-7.52 2.93-16.5 2.96-24-0.125-6.13-3.25-11.8-7.44-14-14.3-0.309-3.69-0.241-7.3 0-11 0.99 0.33 1.98 0.66 3 1v-6h2v3c0.639 0.309 1.28 0.619 1.94 0.938 2.06 1.06 2.06 1.06 3.06 2.06 0.66 0.33 1.32 0.66 2 1l2-2h4c0.33-0.66 0.66-1.32 1-2h6v-3h2v2h2c-0.342-2.97-0.342-2.97-1-6-0.66-0.33-1.32-0.66-2-1h2v-2z" fill="#6F66FD"/>
<path transform="translate(600,168)" d="m0 0c0.495 1.49 0.495 1.49 1 3-0.33 0.33-0.66 0.66-1 1 0.66 0.33 1.32 0.66 2 1 0.33-0.66 0.66-1.32 1-2 4.59 3.52 5.12 7.58 6 13 0.66-2.31 1.32-4.62 2-7h1c0.618 8.12 0.463 14.6-5 21-7.94 6.56-16 6.63-26 6-7.44-1.57-12.7-5.86-17-12-1.42-3.55-1.27-7.22-1-11 1.5-2.44 1.5-2.44 3-4v7l2.25-0.562c2.75-0.438 2.75-0.438 6.75 0.562 0.33-4.95 0.66-9.9 1-15h2v2h2v-2h9c-0.33 0.66-0.66 1.32-1 2h-6v3h12c0.66-1.32 1.32-2.64 2-4h4v-2z" fill="#6F66FD"/>
<path transform="translate(1173,131)" d="m0 0v3h6v2h2c-0.33 1.32-0.66 2.64-1 4h3v2h-2c-0.66 2.97-1.32 5.94-2 9 0.99 0.33 1.98 0.66 3 1 0.495 2.97 0.495 2.97 1 6h2v-7c1.32-0.33 2.64-0.66 4-1 0.198 3.4 0.381 6.79 0.562 10.2 0.0841 1.44 0.0841 1.44 0.17 2.91 0.0483 0.931 0.0967 1.86 0.146 2.82 0.0471 0.854 0.0943 1.71 0.143 2.59-0.0373 4.28-0.631 6.91-3.02 10.5-0.33-0.66-0.66-1.32-1-2-0.771 0.0116-1.54 0.0232-2.34 0.0352-1.5 0.0135-1.5 0.0135-3.04 0.0273-0.998 0.0116-2 0.0232-3.02 0.0352-2.6-0.0977-2.6-0.0977-4.6-1.1v-6h-2c-0.66-3.3-1.32-6.6-2-10-1.32 0.33-2.64 0.66-4 1h-3c-0.495 2.47-0.495 2.47-1 5h-1c-0.0606-1.14-0.121-2.29-0.184-3.46-0.0844-1.49-0.169-2.98-0.254-4.47-0.0393-0.755-0.0786-1.51-0.119-2.29 0.116-3.69 0.116-3.69-1.44-6.78-3-0.142-5.99-0.0424-9 0v-11h3v-5h2v5h4c-0.33-1.65-0.66-3.3-1-5 5.49-1.87 10.2-2.24 16-2z" fill="#6C65FD"/>
<path transform="translate(568,72)" d="m0 0c0.33 4.29 0.66 8.58 1 13 3.3-0.33 6.6-0.66 10-1v2h2v4h-2c0.162 1.16 0.325 2.33 0.492 3.53 0.698 6.31 0.658 12.6 0.638 19-0.00537 2.08-2.17e-5 4.16 0.00635 6.23 0.00292 6.5-0.0942 12.9-1.14 19.3h4c0.33 1.32 0.66 2.64 1 4-2.48 0.495-2.48 0.495-5 1v11c-0.66-0.33-1.32-0.66-2-1-0.449-2.21-0.449-2.21-0.688-4.94-0.0864-0.896-0.173-1.79-0.262-2.71-0.0508-2.35-0.0508-2.35 0.949-4.35-1.49 0.495-1.49 0.495-3 1-0.33 3.63-0.66 7.26-1 11-2.1-4.19-2.15-5.31-1.62-9.75 0.111-0.985 0.222-1.97 0.336-2.98 0.0954-0.748 0.191-1.5 0.289-2.27-1.32-0.33-2.64-0.66-4-1v16h-3v-80c2-1 2-1 3-1z" fill="#6F66FD"/>
<path transform="translate(286,26)" d="m0 0c4.19 1.32 5.93 2.73 8.25 6.44 0.5 0.782 1 1.56 1.52 2.37 2.04 3.63 2.35 6.43 2.33 10.5-0.00322 1.03-0.00645 2.06-0.00977 3.12-0.00838 1.07-0.0168 2.14-0.0254 3.25-0.00451 1.08-0.00902 2.17-0.0137 3.28-0.0118 2.68-0.0282 5.35-0.0488 8.03 0.759-0.0348 1.52-0.0696 2.3-0.105 1.49-0.0406 1.49-0.0406 3.01-0.082 0.986-0.0348 1.97-0.0696 2.99-0.105 2.7 0.293 2.7 0.293 4.55 1.8 0.378 0.491 0.755 0.982 1.14 1.49-1.49 0.495-1.49 0.495-3 1v2h3c0.33 2.64 0.66 5.28 1 8 1.65 0.33 3.3 0.66 5 1-0.495 0.99-0.495 0.99-1 2h-2v3c1.49 0.495 1.49 0.495 3 1-0.495 0.99-0.495 0.99-1 2-0.07 1.71-0.0844 3.42-0.0625 5.12 0.00902 0.91 0.018 1.82 0.0273 2.76 0.0116 0.699 0.0232 1.4 0.0352 2.12h-4v-3c-0.99 0.99-0.99 0.99-2 2-1.49 0.495-1.49 0.495-3 1v-3c-0.33 0.99-0.66 1.98-1 3h-4v2h-13v-12h12c0.33-2.64 0.66-5.28 1-8h-2c-0.33 0.99-0.66 1.98-1 3h-11v-2h3v-2c-0.99-0.33-1.98-0.66-3-1v-2h3v-3h2v-6c-0.99-0.33-1.98-0.66-3-1v-3c-0.99-0.33-1.98-0.66-3-1-0.33-5.28-0.66-10.6-1-16 0.99 0.33 1.98 0.66 3 1v5c1.3-2.22 1.3-2.22 1-6h3c-0.429-6.96-0.429-6.96-3.69-12.8-2.11-1.52-2.11-1.52-5.31-3.16 0.33-0.66 0.66-1.32 1-2z" fill="#6C65FC"/>
<path transform="translate(822,88)" d="m0 0c6.17 7.37 7.3 15.6 7 25-0.642 6.58-2.56 11.8-7.5 16.4-8.3 6.61-19.3 6.63-29.5 5.59-6.07-1-12-2.47-18-4 2.65-1.46 3.89-2 7-2v-2c4.9-0.196 8.39 0.464 13 2 2.33 0.0395 4.67 0.044 7 0 1.49 0.495 1.49 0.495 3 1-0.495-4.95-0.495-4.95-1-10h-3c-0.33 0.66-0.66 1.32-1 2-0.66-0.99-1.32-1.98-2-3v3h-2c-0.33 0.66-0.66 1.32-1 2-1-7.75-1-7.75-1-10h4c0.168-1.94 0.335-3.87 0.5-5.81 0.139-1.62 0.139-1.62 0.281-3.27 0.256-2.93 0.256-2.93 0.219-5.92 4.03-0.576 7.5-0.817 11.2 1.17 3.11 2.68 4.67 4.62 5.27 8.74 0.00706 2.73-0.121 5.37-0.43 8.09-1.98 0.495-1.98 0.495-4 1h3c1.34 0.306 2.68 0.635 4 1v2h2v2c-0.598-0.165-1.2-0.33-1.81-0.5-2.3-0.611-2.3-0.611-5.19-0.5v2c3.73 0.575 7.21 1 11 1 2-6.79 3.35-13.9 3-21-1.36-2.21-1.36-2.21-3-4-0.289-0.969-0.577-1.94-0.875-2.94-1.34-3.66-3.33-5.41-6.12-8.06v-2c-1.86 0.0619-1.86 0.0619-3.75 0.125-3.33 0.00587-5.36-0.372-8.25-2.12-3.29-1.06-6.31-1.1-9.75-1.06-0.985 0.00902-1.97 0.018-2.98 0.0273-1.12 0.0174-1.12 0.0174-2.27 0.0352v-1c11.1-1.63 23.8-2.45 33 5z" fill="#6C65FD"/>
<path transform="translate(1555,160)" d="m0 0c-0.33 2.31-0.66 4.62-1 7h-20v10c6.27 0.33 12.5 0.66 19 1-0.33 2.31-0.66 4.62-1 7-1.82 0.0909-1.82 0.0909-3.68 0.184-1.58 0.0844-3.17 0.169-4.75 0.254-1.2 0.059-1.2 0.059-2.43 0.119-3.88-0.151-3.88-0.151-7.13 1.44-0.0721 1.69-0.0839 3.38-0.0625 5.06 0.0135 1.38 0.0135 1.38 0.0273 2.79 0.0116 0.71 0.0232 1.42 0.0352 2.15 0.855-0.00786 0.855-0.00786 1.73-0.0159 2.57-0.0207 5.14-0.0338 7.71-0.0466 0.898-0.00838 1.8-0.0168 2.72-0.0254 0.854-0.00322 1.71-0.00645 2.59-0.00977 0.791-0.00524 1.58-0.0105 2.4-0.0159 1.86 0.114 1.86 0.114 2.86 1.11v6h-29c-0.909-4.54-1.15-8.67-1.13-13.3-9.57e-4 -0.785-0.00191-1.57-0.0029-2.38-6.78e-4 -1.65 0.00115-3.3 0.00534-4.96 0.00537-2.53 3.55e-5 -5.06-0.00635-7.59 6.61e-4 -1.61 0.00194-3.22 0.00391-4.82-0.00202-0.756-0.00405-1.51-0.00613-2.29 0.0142-3.17 0.13-5.67 1.14-8.7 9.63-2.31 20.3-1.28 30 0z" fill="#6C63F5"/>
<path transform="translate(819,18)" d="m0 0c4.83-0.395 8.45-0.077 12.6 2.45 2.49 2.68 2.65 5.88 3.05 9.41 0.128 0.708 0.255 1.42 0.387 2.14 0.66 0.33 1.32 0.66 2 1 0.66-0.99 1.32-1.98 2-3 0.0544 2.38 0.0939 4.75 0.125 7.12 0.0168 0.665 0.0335 1.33 0.0508 2.02 0.0768 7.84-2.25 12-6.18 18.9h-17c0.33-1.32 0.66-2.64 1-4 0.495 0.495 0.495 0.495 1 1 2.67 0.141 5.32 0.0425 8 0-1.81-1.81-4.61-1.38-7.06-1.56-1.1-0.0838-2.21-0.168-3.35-0.254-0.855-0.0606-1.71-0.121-2.59-0.184v-2h3c-0.66-0.66-1.32-1.32-2-2-0.33-0.99-0.66-1.98-1-3h-8v-2h-4c-0.33 0.66-0.66 1.32-1 2-0.33-1.32-0.66-2.64-1-4h8c-0.66-0.33-1.32-0.66-2-1v-2h-4c-0.33 0.66-0.66 1.32-1 2v-2c-2.97-0.33-5.94-0.66-9-1v-1h14c0.33-0.66 0.66-1.32 1-2v2c1.94-0.114 3.88-0.242 5.81-0.375 1.62-0.104 1.62-0.104 3.27-0.211 3.1-0.226 3.1-0.226 5.92-2.41 0-3.25-0.249-5.48-1-8.56-0.643-2.65-1-4.69-1-7.44z" fill="#6F66FD"/>
<path transform="translate(1590,161)" d="m0 0c3.65 2.5 4.66 5.49 5.61 9.7 0.756 5.55 0.798 9.61-2.61 14.3-3.32 3.57-7.35 3.75-12 4-2.67 0.0637-5.33 0.0478-8 0-1.05 3.16-1.31 5.87-1.56 9.19-0.0838 1.09-0.168 2.17-0.254 3.29-0.0606 0.831-0.121 1.66-0.184 2.52h-8c-1.16-2.31-1.09-3.52-1.02-6.08 0.0201-0.841 0.0402-1.68 0.0609-2.55 0.0406-1.36 0.0406-1.36 0.0819-2.75 0.0354-1.39 0.0354-1.39 0.0715-2.82 0.0767-2.98 0.161-5.95 0.245-8.93 0.0532-2.01 0.106-4.03 0.158-6.04 0.129-4.94 0.265-9.89 0.404-14.8 8.85-1.82 18.3-1.6 27 1zm-18 6c-1.37 2.75-1.13 5-1.12 8.06-0.00258 1.08-0.00516 2.17-0.00781 3.29-0.168 2.57-0.168 2.57 1.13 3.65 4.85 0.489 9.4 0.871 13.8-1.5 1.81-3.62 1.37-6.67 0.25-10.5-0.66-0.99-1.32-1.98-2-3-2.9-0.365-2.9-0.365-6.12-0.188-1.1 0.0271-2.19 0.0541-3.32 0.082-1.26 0.0522-1.26 0.0522-2.55 0.105z" fill="#6B63F3"/>
<path transform="translate(1387,138)" d="m0 0v2c1.65-0.66 3.3-1.32 5-2 0.33 1.32 0.66 2.64 1 4h2c0.66 5.28 1.32 10.6 2 16h4v-2c-0.66-0.33-1.32-0.66-2-1 0.33-0.66 0.66-1.32 1-2 0.225-1.54 0.408-3.08 0.562-4.62 0.0838-0.817 0.168-1.63 0.254-2.48 0.0909-0.94 0.0909-0.94 0.184-1.9 0.66 0.33 1.32 0.66 2 1 0.33-0.33 0.66-0.66 1-1h1c0.77 7.66 1.11 15.2 1.12 22.9 0.00451 0.804 0.00902 1.61 0.0137 2.44-0.0108 4.32-0.278 8.37-1.14 12.6h-1v-6h-3v-2c-2.09 1.82-2.09 1.82-2.81 4.06-1.19 1.94-1.19 1.94-3.62 2.62-1.27 0.155-1.27 0.155-2.56 0.312-1.48 0.495-1.48 0.495-3 1h-4c0.33-0.99 0.66-1.98 1-3 1.48-0.495 1.48-0.495 3-1 0.33-4.29 0.66-8.58 1-13 1.65-0.66 3.3-1.32 5-2v-3h-4c-0.33 0.99-0.66 1.98-1 3v-3c-1.13 0.186-2.27 0.371-3.44 0.562-1.76 0.217-1.76 0.217-3.56 0.438-0.33-0.33-0.66-0.66-1-1-2.33-0.368-4.66-0.702-7-1v-3h5v-2h-5v-3h5v-2h-2c0.186-0.577 0.371-1.16 0.562-1.75 0.478-2.46 0.195-3.89-0.562-6.25 6.75-3 6.75-3 9-3z" fill="#6C65FD"/>
<path transform="translate(1282,65)" d="m0 0c11.5-0.942 23.1 3.32 33 9v2c0.681 0.165 1.36 0.33 2.06 0.5 4.35 2.22 6.86 5.78 9.94 9.5 0.66 0.66 1.32 1.32 2 2 1.36 4.3 1.36 4.3 0 6.94-1.41 2.92-0.701 4.98 0 8.06-5.88-0.387-10.8-1.05-16-4-0.716-1.65-1.38-3.32-2-5-0.934-1.59-1.91-3.15-2.94-4.69-0.504-0.767-1.01-1.53-1.53-2.32-1.55-2.23-1.55-2.23-4.54-3.99-1.31-4.38-1.31-4.38 0-7-0.66-0.66-1.32-1.32-2-2-0.66-0.66-1.32-1.32-2-2-0.33 0.66-0.66 1.32-1 2-3.3-0.33-6.6-0.66-10-1-0.33-0.99-0.66-1.98-1-3-2.5-1.22-2.5-1.22-5-2 0.33-0.99 0.66-1.98 1-3z" fill="#6961F4"/>
<path transform="translate(744,132)" d="m0 0c1.32 0.66 2.64 1.32 4 2 0.0254 6.46 0.0429 12.9 0.0549 19.4 0.00503 2.2 0.0118 4.39 0.0205 6.59 0.0121 3.16 0.0178 6.32 0.0222 9.48 0.00516 0.98 0.0103 1.96 0.0156 2.97 1.13e-4 1.38 1.13e-4 1.38 2.29e-4 2.79 0.00333 1.21 0.00333 1.21 0.00673 2.44-0.13 2.53-0.568 4.88-1.12 7.35-1.49-0.495-1.49-0.495-3-1-1.31-2.62-0.896-4.23-0.562-7.12 0.102-0.91 0.204-1.82 0.309-2.76 0.0838-0.699 0.168-1.4 0.254-2.12-1.3 0.0206-2.6 0.0412-3.94 0.0625-1.35 0.0215-2.71 0.00898-4.06-0.0625-0.33-0.33-0.66-0.66-1-1-0.99 0.495-0.99 0.495-2 1-0.33-0.66-0.66-1.32-1-2h-4v-3h7v-2c-1.32-0.33-2.64-0.66-4-1v-6h2v-2h2c-0.66-0.99-1.32-1.98-2-3-1.04-3.12-1.11-5.98-1.06-9.25 0.00902-0.892 0.018-1.78 0.0273-2.7 0.0116-0.675 0.0232-1.35 0.0352-2.05 1.65-0.33 3.3-0.66 5-1v-3c0.99-0.33 1.98-0.66 3-1v3c0.66 0.33 1.32 0.66 2 1 0.144-0.804 0.289-1.61 0.438-2.44 0.562-2.56 0.562-2.56 1.56-3.56z" fill="#6D65FD"/>
<path transform="translate(1436,114)" d="m0 0c0.598 0.186 1.2 0.371 1.81 0.562 2.35 0.658 2.35 0.658 5.19-0.562v2c1.67-0.0309 1.67-0.0309 3.38-0.0625 3.62 0.0625 3.62 0.0625 5.62 1.06 1.19 7.03 1.24 14 0 21h-2c-0.33 2.31-0.66 4.62-1 7h-2v3h-2c-0.495-1.49-0.495-1.49-1-3h-2v3h-2c-0.33 9.57-0.66 19.1-1 29-0.99-0.33-1.98-0.66-3-1 0.00786-1.41 0.00786-1.41 0.0159-2.85 1.23-27.9 1.23-27.9-3.02-55.1 2.64 0.33 5.28 0.66 8 1-0.639-0.268-1.28-0.536-1.94-0.812-2.06-1.19-2.06-1.19-3.06-4.19z" fill="#6C65FD"/>
<path transform="translate(433,82)" d="m0 0c2.1-0.399 2.1-0.399 4-1v2c-1.98 0.33-3.96 0.66-6 1 0.33 0.66 0.66 1.32 1 2h5v2c-1.98 0.33-3.96 0.66-6 1-0.33 1.32-0.66 2.64-1 4h-3v3h-2v8c0.619-0.186 1.24-0.371 1.88-0.562 2.12-0.438 2.12-0.438 4.12 0.562v-2c0.577 0.186 1.15 0.371 1.75 0.562 2.24 0.605 2.24 0.605 4.38-0.125 0.619-0.144 1.24-0.289 1.88-0.438 0.66 0.66 1.32 1.32 2 2-0.375 3.62-0.375 3.62-1 7-1.09-0.309-2.19-0.619-3.31-0.938-4.46-1.14-8.88-1.51-13.5-1.82-2.22-0.246-2.22-0.246-3.22-1.25-1.67-0.0406-3.33-0.0427-5 0v-2h-9c0.99-1.65 1.98-3.3 3-5-0.99-0.33-1.98-0.66-3-1 0.99-1.48 0.99-1.48 2-3 0.0791-2.33 0.088-4.67 0-7 2.64-0.33 5.28-0.66 8-1v-2h3c0.33-0.99 0.66-1.98 1-3 1.79-0.362 3.58-0.715 5.38-1.06 1.5-0.296 1.5-0.296 3.02-0.598 2.6-0.34 2.6-0.34 4.6 0.66z" fill="#6C65FD"/>
<path transform="translate(413,147)" d="m0 0c0.908 0.165 1.81 0.33 2.75 0.5 8.71 1.23 17.6 0.577 26.2-0.5v4c-0.99 0.66-1.98 1.32-3 2 0.699 0.0606 1.4 0.121 2.12 0.184 0.91 0.0838 1.82 0.168 2.76 0.254 0.905 0.0812 1.81 0.162 2.74 0.246 2.38 0.316 2.38 0.316 4.38 1.32 0.333 1.67 0.667 3.33 1 5 0.66 0.33 1.32 0.66 2 1 0 3.11-0.174 5.11-1 8-2.58 0.027-5.17 0.0469-7.75 0.0625-0.73 0.00838-1.46 0.0168-2.21 0.0254-3.53 0.016-6.65-0.135-10-1.09v-2h-2v2h-3c-0.33-2.97-0.66-5.94-1-9h-3v-2c-0.66-0.33-1.32-0.66-2-1-0.33-0.99-0.66-1.98-1-3-1.87-1.02-1.87-1.02-4.06-1.69-0.733-0.251-1.47-0.503-2.22-0.762-0.566-0.182-1.13-0.364-1.71-0.551v-3z" fill="#6862F5"/>
<path transform="translate(706,145)" d="m0 0h2c0.124 0.804 0.247 1.61 0.375 2.44 0.309 1.27 0.309 1.27 0.625 2.56 0.66 0.33 1.32 0.66 2 1v-6h2c0.33 1.65 0.66 3.3 1 5 3.3 0.33 6.6 0.66 10 1v9c-0.99 0.33-1.98 0.66-3 1v7h2v2c0.66 0.33 1.32 0.66 2 1h-4v2h2v2c0.66 0.33 1.32 0.66 2 1h-4v3h-3c-0.33-0.66-0.66-1.32-1-2-0.33 0.66-0.66 1.32-1 2h-3c-0.33-0.66-0.66-1.32-1-2-2.02-0.652-2.02-0.652-4-1v-5h-2v-6h-2v-11h2v-9z" fill="#6C65FD"/>
<path transform="translate(423,64)" d="m0 0c16-0.586 29.9 2.48 44 10 2.33 2.33 4.67 4.67 7 7 0.598 0.557 1.2 1.11 1.81 1.69 1.19 1.31 1.19 1.31 1.19 3.31h2v3h2c-0.495 1.48-0.495 1.48-1 3h-2v2c-1.79 0.195-3.58 0.381-5.38 0.562-0.998 0.104-2 0.209-3.02 0.316-2.6 0.121-2.6 0.121-4.6-0.879 0.495-1.48 0.495-1.48 1-3 1.65-0.33 3.3-0.66 5-1-0.58 0.0928-1.16 0.186-1.76 0.281-2.61 0.241-4.67 0.279-7.24-0.281-2.61-2.31-4.41-4.9-6-8v-2h2v-2h-2v-3c-1.32-0.33-2.64-0.66-4-1 1.32-0.66 2.64-1.32 4-2-1.63 0.0522-1.63 0.0522-3.29 0.105-1.45 0.0282-2.89 0.0555-4.34 0.082-1.07 0.0377-1.07 0.0377-2.16 0.0762-4.83 0.0664-8-0.651-12.2-3.26-0.681-0.804-0.681-0.804-1.38-1.62-2.77-2.34-6.08-2.08-9.62-2.38v-1z" fill="#6A62F6"/>
<path transform="translate(502,27)" d="m0 0v144c-0.99-0.33-1.98-0.66-3-1v-142c2-1 2-1 3-1z" fill="#6D65FD"/>
<path transform="translate(1278,94)" d="m0 0c2.47 0.99 2.47 0.99 5 2 0.33-0.66 0.66-1.32 1-2 1.32 0.66 2.64 1.32 4 2v2c0.99 0.33 1.98 0.66 3 1-0.33 0.66-0.66 1.32-1 2h-2v2c0.99 0.33 1.98 0.66 3 1-1.76 2.18-2.69 2.94-5.48 3.51-0.893 0.058-1.79 0.116-2.71 0.176-0.901 0.0657-1.8 0.131-2.73 0.199-0.687 0.0374-1.37 0.0748-2.08 0.113 0.495 0.99 0.495 0.99 1 2 2.11 0.658 2.11 0.658 4.62 1.06 0.897 0.164 1.79 0.327 2.72 0.496 3.21 0.534 6.43 1.02 9.66 1.44-0.33 0.66-0.66 1.32-1 2-3.74 1.07-7.29 1.09-11.2 1.03-1.19-0.0122-2.38-0.0245-3.6-0.0371-2.46-0.0347-4.93-0.0737-7.39-0.117-8.76-0.0801-17.7 0.214-26.1 2.82-0.871 0.153-0.871 0.153-1.76 0.309-0.66-0.66-1.32-1.32-2-2 2-3 2-3 4.56-3.62 0.804-0.124 1.61-0.248 2.44-0.375 0.33-0.33 0.66-0.66 1-1 3.53-0.0731 7.05 0.00396 10.6 0.0625 3.55 0.0631 3.55 0.0631 7.42-1.06 0.33-3.63 0.66-7.26 1-11h8v-6z" fill="#6C65FD"/>
<path transform="translate(1318,144)" d="m0 0h2v3c0.454-0.495 0.908-0.99 1.38-1.5 1.62-1.5 1.62-1.5 3.62-1.5v12h-7c-1 3.58-1 3.58 0 7-0.33 0.99-0.66 1.98-1 3h-15v-16h8c0.33-1.32 0.66-2.64 1-4h6c0.33-0.66 0.66-1.32 1-2z" fill="#6C65FD"/>
<path transform="translate(1555,160)" d="m0 0c-0.33 2.31-0.66 4.62-1 7h-20c-0.33 2.97-0.66 5.94-1 9-0.99 0.33-1.98 0.66-3 1-0.33-1.32-0.66-2.64-1-4h-2v15c-0.99-0.33-1.98-0.66-3-1-0.029-3.94-0.0468-7.87-0.0625-11.8-0.00838-1.12-0.0168-2.24-0.0254-3.39-0.00322-1.07-0.00645-2.15-0.00977-3.25-0.00524-0.99-0.0105-1.98-0.0159-3 0.114-2.54 0.114-2.54 1.11-5.54 9.63-2.31 20.3-1.28 30 0z" fill="#655EEC"/>
<path transform="translate(1265,77)" d="m0 0c15-0.436 15-0.436 19.9 3.5 1.12 1.5 1.12 1.5 1.12 3.5h2c0.33-0.99 0.66-1.98 1-3 0.66 0.33 1.32 0.66 2 1v2h2c0.33 0.99 0.66 1.98 1 3h-3v2h2v3c-3.29 1.1-5.74 1.1-9.19 1.06-1.63-0.0135-1.63-0.0135-3.29-0.0273-0.831-0.0116-1.66-0.0232-2.52-0.0352v-2h-6c-0.33-0.66-0.66-1.32-1-2-1.98-0.727-3.98-1.4-6-2v-10z" fill="#6C66FD"/>
<path transform="translate(1357,142)" d="m0 0c0.639 0.33 1.28 0.66 1.94 1 1.83 1.07 1.83 1.07 3.06 1 0.33 3.63 0.66 7.26 1 11 0.789-3.95 1.09-7.04 1-11 0.99-0.33 1.98-0.66 3-1v11h2v10h-2v10c-0.33-0.66-0.66-1.32-1-2-0.99-0.33-1.98-0.66-3-1 0.0116-0.855 0.0232-1.71 0.0352-2.59 0.00902-1.1 0.018-2.21 0.0273-3.35 0.0116-1.1 0.0232-2.2 0.0352-3.34 0.215-2.64 0.215-2.64-1.1-3.72 0.0232 0.892 0.0464 1.78 0.0703 2.7 0.018 1.17 0.0361 2.34 0.0547 3.55 0.0232 1.16 0.0464 2.32 0.0703 3.52-0.189 3.12-0.644 4.6-2.2 7.23-0.377 1.66-0.721 3.32-1 5-2-1-2-1-3-4-0.0965-2.5-0.14-4.97-0.133-7.48-9.57e-4 -0.726-0.00191-1.45-0.0029-2.2-6.8e-4 -1.53 0.00116-3.06 0.00534-4.59 0.00537-2.35 3.99e-5 -4.71-0.00635-7.06 6.61e-4 -1.49 0.00194-2.97 0.00391-4.46-0.00202-0.707-0.00405-1.41-0.00613-2.14 0.024-4.95 0.024-4.95 1.14-6.07z" fill="#6C65FD"/>
<path transform="translate(1333,103)" d="m0 0c2.81 1.06 4.58 2.12 5.91 4.89 2.37 7.51 2.54 14.7 2.47 22.5 0.0116 1.26 0.0232 2.51 0.0352 3.81-0.00387 1.21-0.00773 2.41-0.0117 3.65-0.00338 1.09-0.00677 2.18-0.0103 3.3-0.428 3.16-1.26 4.54-3.39 6.87-0.195-2.58-0.381-5.17-0.562-7.75-0.0561-0.73-0.112-1.46-0.17-2.21-0.245-3.59-0.264-6.59 0.732-10h-2c0.0838 1.1 0.168 2.19 0.254 3.32 0.103 1.45 0.206 2.91 0.309 4.36 0.0561 0.721 0.112 1.44 0.17 2.19 0.267 3.9 0.276 7.34-0.732 11.1h-1c-0.0606-1.07-0.121-2.14-0.184-3.25-0.0844-1.4-0.169-2.79-0.254-4.19-0.0393-0.707-0.0786-1.41-0.119-2.14 0.0804-3.51 0.0804-3.51-1.44-6.42-0.227-1.48-0.395-2.96-0.535-4.45-0.131-1.37-0.131-1.37-0.264-2.77-0.087-0.962-0.174-1.92-0.264-2.91-0.0909-0.938-0.182-1.88-0.275-2.84-0.469-5.03-0.767-9.98-0.662-15h1v5h2c-0.33-2.31-0.66-4.62-1-7z" fill="#6D65FC"/>
<path transform="translate(855,77)" d="m0 0c1.24 3.58 0.749 6.34 0 10h-1c-0.33 25.1-0.66 50.2-1 76-0.99-0.33-1.98-0.66-3-1-0.0464-9.79-0.0819-19.6-0.104-29.4-0.0104-4.55-0.0245-9.09-0.0473-13.6-0.0218-4.39-0.0337-8.78-0.0389-13.2-0.00368-1.67-0.0109-3.34-0.0217-5.01-0.0146-2.35-0.0165-4.7-0.0156-7.04-0.00719-0.685-0.0144-1.37-0.0218-2.08 0.0192-4.54 0.659-8.44 2.25-12.7 0.99-0.66 1.98-1.32 3-2z" fill="#6C64FC"/>
<path transform="translate(267,42)" d="m0 0h9v8h-2c-0.33 0.99-0.66 1.98-1 3h-6v2h-9c-0.33-1.65-0.66-3.3-1-5-0.99-0.33-1.98-0.66-3-1v-6c2-0.0425 4-0.0408 6 0 0.33 0.33 0.66 0.66 1 1 1.67 0.0406 3.33 0.0427 5 0 0.33-0.66 0.66-1.32 1-2z" fill="#6C66FD"/>
<path transform="translate(934,102)" d="m0 0c0.66 15.2 1.32 30.4 2 46h2c-0.33 0.66-0.66 1.32-1 2-0.99-0.33-1.98-0.66-3-1 0.309 1.39 0.309 1.39 0.625 2.81 0.375 3.19 0.375 3.19-1.62 6.19-1.86-3.17-2.25-5.48-2.23-9.14 1.51e-4 -1.02 3.02e-4 -2.04 4.58e-4 -3.09 0.0103-1.09 0.0206-2.19 0.0313-3.32 0.00283-1.13 0.00566-2.25 0.00858-3.41 0.0112-3.6 0.0363-7.19 0.0617-10.8 0.01-2.44 0.0192-4.88 0.0273-7.32 0.022-5.98 0.0555-12 0.0977-17.9 2-1 2-1 3-1z" fill="#6C65FD"/>
<path transform="translate(467 122)" d="m0 0c3.55 0.86 7.08 1.52 10.7 2.12 0.99 0.33 1.98 0.66 3 1 0.66-1.32 1.32-2.64 2-4 0.66 0.33 1.32 0.66 2 1-2.9 5.23-5.13 7.08-11 9-5 1.07-9.8 1.12-14.9 1.06-0.784-0.00451-1.57-0.00902-2.38-0.0137-1.92-0.0117-3.83-0.0296-5.75-0.0488 3.01-1.58 5.64-2.44 9-3v-7c3.23-1.08 4.13-0.927 7.31-0.125z" fill="#6C65FD"/>
<path transform="translate(478 148)" d="m0 0c2.03 1.69 2.75 3.08 3.79 5.48 0.701 1.07 1.4 2.15 2.12 3.25 2.35 4.01 2.2 7.18 1.88 11.8-0.99-0.33-1.98-0.66-3-1v-4h-3c-0.934-3.01-1.04-3.87 0-7-3-1.67-5.64-2.35-9-3-2.11-0.51-4.21-1.03-6.31-1.56-1.07-0.269-2.14-0.539-3.24-0.816-1.21-0.307-1.21-0.307-2.45-0.621 0.33-0.99 0.66-1.98 1-3h8v-2c-6.6 0.33-13.2 0.66-20 1v-1c9.98-2.39 21.1-2.53 30.2 2.52z" fill="#5D56D8"/>
<path transform="translate(1047,119)" d="m0 0c11.7 1.68 23.4 3.85 35 6-3.61 2.92-6.18 3.6-10.8 4.19-1.18 0.159-2.36 0.317-3.58 0.48-3.56 0.328-7.03 0.391-10.6 0.332 0.33 0.99 0.66 1.98 1 3-1.32-0.33-2.64-0.66-4-1 0-3 0-3 1-4-0.66-0.33-1.32-0.66-2-1 0.33-1.98 0.66-3.96 1-6-2.31-0.33-4.62-0.66-7-1v-1z" fill="#615AE1"/>
<path transform="translate(153,120)" d="m0 0c3.78 0.525 6.35 1.16 9 4 0.75 3.69 0.75 3.69 1 7h4v2h-4v3c-0.66 0.33-1.32 0.66-2 1v2h-3v15c-0.99-0.33-1.98-0.66-3-1-0.0251-0.858-0.0501-1.72-0.0759-2.6-0.0953-3.19-0.195-6.38-0.296-9.57-0.0432-1.38-0.0849-2.76-0.125-4.14-0.058-1.99-0.122-3.97-0.186-5.96-0.0367-1.19-0.0733-2.39-0.111-3.62-0.167-2.54-0.469-4.69-1.21-7.12z" fill="#6C65FD"/>
<path transform="translate(740,32)" d="m0 0h12c0.125 10.6 0.125 10.6-1 14-1.32-0.33-2.64-0.66-4-1-0.33 0.66-0.66 1.32-1 2-2.94-1.31-2.94-1.31-6-3-1.42-4.27-0.58-7.55 0-12z" fill="#6C66FD"/>
<path transform="translate(1388,66)" d="m0 0c4.35 0.725 7.7 1.43 10.6 4.92 0.483 0.749 0.967 1.5 1.46 2.27 0.486 0.736 0.972 1.47 1.47 2.23 3.54 6.23 4.9 11 4.65 18-0.0203 1.1-0.0203 1.1-0.041 2.22-0.0349 1.78-0.0887 3.56-0.146 5.35-0.66-0.33-1.32-0.66-2-1-0.678-2.33-1.34-4.66-2-7-0.66-0.66-1.32-1.32-2-2-0.23-2.09-0.23-2.09-0.188-4.5 0.00645-0.794 0.0129-1.59 0.0195-2.41 0.168-2.09 0.168-2.09 1.17-4.09-0.99-0.33-1.98-0.66-3-1-1.19-3.06-1.19-3.06-2-6-2.97-0.33-5.94-0.66-9-1v-2h2c-0.33-1.32-0.66-2.64-1-4z" fill="#6961F4"/>
<path transform="translate(665,12)" d="m0 0c3.85 0.534 5.27 2.04 7.62 5.06 5.66 7.69 5.68 14.6 5.38 23.9h-2c-1.76-6.66-3.34-13.1-4-20-0.99 0.33-1.98 0.66-3 1-0.66-0.66-1.32-1.32-2-2-1.65 0.66-3.3 1.32-5 2-0.66-2.31-1.32-4.62-2-7 0.99-0.33 1.98-0.66 3-1 0.66 0.33 1.32 0.66 2 1v-3z" fill="#6D65FD"/>
<path transform="translate(741,15)" d="m0 0h13v9c-4 2-4 2-8 2v4c1.32 0.33 2.64 0.66 4 1h-6v-6c-0.99-0.33-1.98-0.66-3-1v-9z" fill="#6C65FD"/>
<path transform="translate(1089,65)" d="m0 0c9.98 0.499 19 4 27 10-0.33 1.32-0.66 2.64-1 4-0.99-0.66-1.98-1.32-3-2-3.21-1.05-6.28-1.88-9.61-2.43-0.892-0.147-1.78-0.294-2.7-0.445-0.842-0.121-1.68-0.242-2.55-0.367-2.14-0.758-2.14-0.758-3.43-2.83-0.233-0.637-0.467-1.27-0.707-1.93 0.66-0.33 1.32-0.66 2-1h-5c-0.33-0.99-0.66-1.98-1-3z" fill="#655EEB"/>
<path transform="translate(822,88)" d="m0 0c4.13 5.44 6.39 10.1 6 17-3.94-3.52-5.36-6.07-7-11-1.63-1.7-3.29-3.38-5-5v-2c-1.24 0.0413-2.48 0.0825-3.75 0.125-3.33 0.00587-5.36-0.372-8.25-2.12-3.29-1.06-6.31-1.1-9.75-1.06-0.985 0.00902-1.97 0.018-2.98 0.0273-1.12 0.0174-1.12 0.0174-2.27 0.0352v-1c11-1.62 23.9-2.49 33 5z" fill="#6961F4"/>
<path transform="translate(423,64)" d="m0 0c10.5-0.387 21 0.408 31 4-0.99 0.495-0.99 0.495-2 1 0.33 0.99 0.66 1.98 1 3-14 0.56-14 0.56-19-3-0.681-0.804-0.681-0.804-1.38-1.62-2.77-2.34-6.08-2.08-9.62-2.38v-1z" fill="#5B55D5"/>
<path transform="translate(1310,77)" d="m0 0c0.516 0.309 1.03 0.619 1.56 0.938 2.56 1.25 2.56 1.25 6.06 1.5 1.11 0.186 2.23 0.371 3.38 0.562 2.16 3.23 2 4.31 2 8h2v4c0.66 0.33 1.32 0.66 2 1-1.98 0.99-1.98 0.99-4 2 0.33-1.65 0.66-3.3 1-5-1.65 0.66-3.3 1.32-5 2v-2c-0.743-0.227-1.48-0.454-2.25-0.688-3.39-1.62-4.79-3.12-6.75-6.31-0.25-3.31-0.25-3.31 0-6z" fill="#6F66FD"/>
<path transform="translate(1031,126)" d="m0 0c5.75-0.125 5.75-0.125 8 1-0.33 1.32-0.66 2.64-1 4 1.65 0.66 3.3 1.32 5 2-0.33 1.32-0.66 2.64-1 4-7.21-0.566-14.3-2.16-21-5-0.33-0.99-0.66-1.98-1-3 3.63 0.33 7.26 0.66 11 1-0.33-0.66-0.66-1.32-1-2 0.33-0.66 0.66-1.32 1-2z" fill="#6C65FD"/>
<path transform="translate(258,112)" d="m0 0c-0.115 1.58-0.242 3.17-0.375 4.75-0.0696 0.882-0.139 1.76-0.211 2.67-0.602 3.75-1.74 5.9-4.41 8.58-0.66-0.33-1.32-0.66-2-1v-2h-2v-13c3.07-1.53 5.7-0.55 9 0z" fill="#7067FD"/>
<path transform="translate(403,164)" d="m0 0c1.75-0.0814 3.5-0.139 5.25-0.188 0.975-0.0348 1.95-0.0696 2.95-0.105 3.17 0.332 4.47 1.18 6.8 3.29-0.33 0.66-0.66 1.32-1 2h-3c1.32 0.99 2.64 1.98 4 3-0.33 0.66-0.66 1.32-1 2-3.63-0.33-7.26-0.66-11-1v-2h-3v-7z" fill="#6C65FD"/>
<path transform="translate(158,158)" d="m0 0v5h4v13h-4c-0.33 0.66-0.66 1.32-1 2-0.66-0.33-1.32-0.66-2-1v-18c2-1 2-1 3-1z" fill="#6C65FD"/>
<path transform="translate(914,165)" d="m0 0h9c-0.99 0.66-1.98 1.32-3 2 0.66 0.33 1.32 0.66 2 1v2c0.99 0.33 1.98 0.66 3 1 2.02 4.05 1.54 9.1 0.328 13.4-0.718 1.9-1.52 3.77-2.33 5.63h-1c-0.0735-1.7-0.0735-1.7-0.148-3.43-0.075-1.48-0.151-2.96-0.227-4.45-0.0309-0.746-0.0619-1.49-0.0938-2.26-0.0877-4.4-0.0877-4.4-2.53-7.86v3h-2c-0.124-1.09-0.247-2.19-0.375-3.31-0.38-3.76-0.38-3.76-2.62-6.69z" fill="#625CE6"/>
<path transform="translate(1148,18)" d="m0 0v8h-2c-1.67 6-2.52 11.8-3 18h-2c-2.59-7.76-1.12-15.6 2-23 1.18-2.36 2.21-3 5-3z" fill="#6C65FC"/>
<path transform="translate(892,178)" d="m0 0h2c0.66 1.32 1.32 2.64 2 4 0.33-1.32 0.66-2.64 1-4h2c1.83 5.03 2.49 8.8 1 14-1.32-0.33-2.64-0.66-4-1v-2h-5c-0.143-7.43-0.143-7.43 1-11z" fill="#6C66FD"/>
<path transform="translate(629,157)" d="m0 0h1c0.33 1.98 0.66 3.96 1 6 0.99 0.33 1.98 0.66 3 1 0.168 1.62 0.334 3.25 0.5 4.88 0.0928 0.905 0.186 1.81 0.281 2.74 0.219 2.38 0.219 2.38 0.219 4.38-1.81 0.625-1.81 0.625-4 1-0.99-0.66-1.98-1.32-3-2-0.328-2.86-0.328-2.86-0.25-6.31 0.0155-1.13 0.0309-2.26 0.0469-3.43 0.178-2.86 0.556-5.48 1.2-8.26z" fill="#6C65FD"/>
<path transform="translate(630,107)" d="m0 0v42h-1v-20h-2v-21c2-1 2-1 3-1z" fill="#6C65FD"/>
<path transform="translate(1116,77)" d="m0 0c4.43 3.27 6.41 5.4 7.62 10.8 0.447 3.88 0.631 7.35 0.375 11.2-1.52 1.74-1.52 1.74-3 3-0.502-2.79-1-5.58-1.5-8.38-0.143-0.794-0.286-1.59-0.434-2.41-1.07-5.99-1.07-5.99-1.07-8.22-0.961-1.36-1.96-2.7-3-4 0.33-0.66 0.66-1.32 1-2z" fill="#6D65FD"/>
<path transform="translate(1445,65)" d="m0 0c6.93 0.495 6.93 0.495 14 1v2h2c-0.33 0.99-0.66 1.98-1 3h-2v2h-8c0.33-0.99 0.66-1.98 1-3-0.619-0.124-1.24-0.248-1.88-0.375-2.12-0.625-2.12-0.625-4.12-2.62v-2z" fill="#615AE3"/>
<path transform="translate(399,129)" d="m0 0c1.43 2.56 2.19 4.75 2.94 7.62 0.752 3.62 0.752 3.62 4.06 5.38v2c1.98 0.66 3.96 1.32 6 2-0.66 0.66-1.32 1.32-2 2-4.24-0.439-7.68-2.78-10.8-5.62-1.87-3.55-2.41-7.37-2.25-11.4 0.66-0.66 1.32-1.32 2-2z" fill="#655EEC"/>
<path transform="translate(652 64.8)" d="m0 0c1.11-0.0309 1.11-0.0309 2.24-0.0625 5.25-0.037 8.82 0.954 13.5 3.31-0.33 0.99-0.66 1.98-1 3-0.557-0.321-1.11-0.643-1.69-0.974-2.59-1.15-4.48-1.34-7.3-1.44-1.4-0.058-1.4-0.058-2.83-0.117-0.968-0.0309-1.94-0.0619-2.93-0.0938-1.48-0.058-1.48-0.058-2.98-0.117-2.42-0.0941-4.85-0.18-7.27-0.258-0.33-0.66-0.66-1.32-1-2 3.77-1.26 7.32-1.22 11.2-1.25z" fill="#5E57DB"/>
<path transform="translate(250,35)" d="m0 0c0.99 0.33 1.98 0.66 3 1 0.201 3.63-0.142 5.87-2 9h2c0.178 4.55-0.00215 7.88-2 12-0.99-0.33-1.98-0.66-3-1-0.308-16.4-0.308-16.4 2-21z" fill="#6D65FD"/>
<path transform="translate(1063,122)" d="m0 0c2.23 0.311 4.46 0.624 6.69 0.938 1.24 0.174 2.48 0.348 3.76 0.527 2.88 0.433 5.71 0.932 8.55 1.54-3.21 2.85-5.5 3.43-9.75 3.69-0.985 0.0657-1.97 0.131-2.98 0.199-0.748 0.0374-1.5 0.0748-2.27 0.113v-2c-1.65-0.33-3.3-0.66-5-1 0.33-1.32 0.66-2.64 1-4z" fill="#5750CA"/>
<path transform="translate(787,14)" d="m0 0h21c-0.33 1.32-0.66 2.64-1 4-2.25 0.0271-4.5 0.0464-6.75 0.0625-1.25 0.0116-2.51 0.0232-3.8 0.0352-2.74-0.0774-4.87-0.27-7.45-1.1v-2c-0.66-0.33-1.32-0.66-2-1z" fill="#7067FD"/>
<path transform="translate(481,90)" d="m0 0c3.39 5.09 5.45 8.77 5 15-1.98 0.99-1.98 0.99-4 2-1.29-4.12-2.26-7.67-2-12h-2v-3c0.99-0.66 1.98-1.32 3-2z" fill="#6D65FD"/>
<path transform="translate(332,67)" d="m0 0c6.74 6.19 8.3 11.3 9.08 20.2-0.0842 2.88-0.582 4.38-2.08 6.8-1.88-3.76-1.36-8.37-1.52-12.5-0.684-4.99-2.78-8.14-6.48-11.5 0.33-0.99 0.66-1.98 1-3z" fill="#6D65FD"/>
<path transform="translate(1119,144)" d="m0 0c1.81 0.125 1.81 0.125 4 1 3.87 5.25 3.3 10.8 3 17-0.33-0.99-0.66-1.98-1-3h-3c-0.504-1.94-1-3.87-1.5-5.81-0.278-1.08-0.557-2.16-0.844-3.27-0.656-2.92-0.656-2.92-0.656-5.92z" fill="#6C64FC"/>
<path transform="translate(819,86)" d="m0 0c-0.33 0.99-0.66 1.98-1 3h-2v-2c-1.24 0.0413-2.48 0.0825-3.75 0.125-3.33 0.00587-5.36-0.372-8.25-2.12-3.29-1.06-6.31-1.1-9.75-1.06-0.985 0.00902-1.97 0.018-2.98 0.0273-1.12 0.0174-1.12 0.0174-2.27 0.0352v-1c10.1-1.49 20.8-1.94 30 3z" fill="#4540A1"/>
<path transform="translate(969,67)" d="m0 0c2.9 0.34 3.88 0.873 5.89 3.07 0.594 0.862 1.19 1.72 1.8 2.61 0.602 0.849 1.2 1.7 1.82 2.57 1.61 2.97 2.12 5.4 2.49 8.74h-3c-0.33-0.66-0.66-1.32-1-2 0.33-0.99 0.66-1.98 1-3h-2c-0.206-0.578-0.413-1.16-0.625-1.75-1.87-3.06-4.34-4.41-7.38-6.25 0.33-1.32 0.66-2.64 1-4z" fill="#6860F1"/>
<path transform="translate(1535,178)" d="m0 0h18c-0.33 1.32-0.66 2.64-1 4-2.1 0.027-4.21 0.0464-6.31 0.0625-1.17 0.0116-2.34 0.0232-3.55 0.0352-3.14-0.0977-3.14-0.0977-6.14-1.1-0.33-0.99-0.66-1.98-1-3z" fill="#5B54D4"/>
<path transform="translate(1180,12)" d="m0 0c4.19 1.32 5.93 2.73 8.25 6.44 0.5 0.782 1 1.56 1.52 2.37 2.02 3.58 2.35 6.34 2.3 10.4-0.00902 0.901-0.018 1.8-0.0273 2.73-0.0116 0.687-0.0232 1.37-0.0352 2.08-1.89-2.83-2.36-4.1-2.94-7.31-0.854-3.98-1.71-7.29-4.06-10.7-2.3-1.36-4.45-2.13-7-3 0.66-0.99 1.32-1.98 2-3z" fill="#6D65FD"/>
<path transform="translate(886,66)" d="m0 0c5.39 1.05 8.2 3.6 11.6 7.71 2.63 4.25 2.98 8.73 1.92 13.6-0.165 0.572-0.33 1.14-0.5 1.73-0.11-0.58-0.219-1.16-0.332-1.76-0.971-4.79-1.94-9.11-4.67-13.2-2.55-1.2-2.55-1.2-5-2-0.33-0.99-0.66-1.98-1-3-0.66-0.33-1.32-0.66-2-1v-2z" fill="#635CE7"/>
<path transform="translate(778,26)" d="m0 0h2v5h2v-5c2.64 1.32 5.28 2.64 8 4v5c-1.32-0.99-2.64-1.98-4-3 0.99 1.32 1.98 2.64 3 4-0.33 0.66-0.66 1.32-1 2-0.99-0.33-1.98-0.66-3-1-0.289-0.66-0.577-1.32-0.875-2-0.98-2.29-0.98-2.29-3.75-2.75-0.784-0.0825-1.57-0.165-2.38-0.25v-6z" fill="#7067FD"/>
<path transform="translate(426 200)" d="m0 0c1.22-0.0168 2.44-0.0335 3.7-0.0508 3.18 0.363 3.18 0.363 5.11 1.88 0.53 0.733 0.53 0.733 1.07 1.48-7.36 0.708-14.6 1.15-22 1v-2c4.13-1.97 7.57-2.3 12.1-2.31z" fill="#6C65FD"/>
<path transform="translate(1050,139)" d="m0 0c20.7-0.266 20.7-0.266 25.6 2.44 1.44 1.56 1.44 1.56 1.44 3.56-8.91-1.65-17.8-3.3-27-5v-1z" fill="#6C65FC"/>
<path transform="translate(1046,106)" d="m0 0h6v2c0.641-0.156 1.28-0.312 1.94-0.473 5.43-1.22 9.61-1.71 15.1-0.527v2c-3.35 0.754-6.43 1.12-9.86 1.1-1.33-0.00483-1.33-0.00483-2.69-0.00977-0.912-0.00838-1.82-0.0168-2.76-0.0254-0.931-0.00451-1.86-0.00902-2.82-0.0137-2.29-0.0117-4.58-0.0282-6.87-0.0488 0.66-0.33 1.32-0.66 2-1v-3z" fill="#6B65FC"/>
<path transform="translate(1364,137)" d="m0 0h3v3h2v-3h3c1 7.75 1 7.75 1 10h-4v-5h-6c0.33-1.65 0.66-3.3 1-5z" fill="#6C66FE"/>
<path transform="translate(712,11)" d="m0 0h21c0.33 0.99 0.66 1.98 1 3-4.82 1.33-9.39 0.901-14.3 0.562-0.836-0.0522-1.67-0.104-2.53-0.158-2.05-0.129-4.1-0.266-6.15-0.404 0.33-0.99 0.66-1.98 1-3z" fill="#6C64FB"/>
<path transform="translate(313,103)" d="m0 0c1.75 2.06 1.75 2.06 3 4-5.79 0.105-11.3-0.00749-17-1 0.33-0.99 0.66-1.98 1-3 1.42-0.197 2.83-0.382 4.25-0.562 0.789-0.104 1.58-0.209 2.39-0.316 2.48-0.127 4.07-0.0641 6.36 0.879z" fill="#6C65FD"/>
<path transform="translate(937,74)" d="m0 0c0.33 0.66 0.66 1.32 1 2h3c0.95 3.7 0.95 6.3 0 10-1.32-0.66-2.64-1.32-4-2 0.66-0.66 1.32-1.32 2-2-0.33-0.33-0.66-0.66-1-1-0.33 0.66-0.66 1.32-1 2h-4c0.531-3.82 1.5-6.06 4-9z" fill="#6C65FD"/>
<path transform="translate(1322,83)" d="m0 0c2.88 1.29 5.05 2.49 7 5 0.991 2.97 1.25 4.38 0.0625 7.31-0.526 0.835-0.526 0.835-1.06 1.69-1.32-0.33-2.64-0.66-4-1 0.66-0.99 1.32-1.98 2-3-0.312-2.65-0.312-2.65-1-5h-2c-0.66-1.32-1.32-2.64-2-4 0.33-0.33 0.66-0.66 1-1z" fill="#6A63F8"/>
<path transform="translate(1337,153)" d="m0 0h1c1.6 7.98-0.0431 13.5-3 21-0.66-0.66-1.32-1.32-2-2 0.13-2.53 0.372-4.88 0.75-7.38 0.0877-0.673 0.175-1.35 0.266-2.04 0.501-3.54 1.13-6.51 2.98-9.59z" fill="#6D65FD"/>
<path transform="translate(386,81)" d="m0 0h7c0.66 1.65 1.32 3.3 2 5h-9c-0.66 2.31-1.32 4.62-2 7-0.66-0.66-1.32-1.32-2-2 0.495-0.897 0.495-0.897 1-1.81 1.21-2.24 1.21-2.24 1-5.19 0.66-0.99 1.32-1.98 2-3z" fill="#6D65FD"/>
<path transform="translate(759,25)" d="m0 0h6c1.26 2.52 1.1 4.31 1.06 7.12-0.00902 0.91-0.018 1.82-0.0273 2.76-0.0116 0.699-0.0232 1.4-0.0352 2.12h-3c-0.33-1.98-0.66-3.96-1-6-0.99-0.33-1.98-0.66-3-1 0.99-0.33 1.98-0.66 3-1v-3c-0.99-0.33-1.98-0.66-3-1z" fill="#6C65FD"/>
<path transform="translate(167,162)" d="m0 0v14h-4v-13c2-1 2-1 4-1z" fill="#6C66FE"/>
<path transform="translate(767,26)" d="m0 0h7c-0.33 1.32-0.66 2.64-1 4-0.66-0.33-1.32-0.66-2-1v8h-3c-1-7.62-1-7.62-1-11z" fill="#6C65FD"/>
<path transform="translate(710,155)" d="m0 0c1.65-0.0269 3.29-0.0463 4.94-0.0625 0.917-0.0116 1.83-0.0232 2.78-0.0352 2.29 0.0977 2.29 0.0977 3.29 1.1 0.0406 1.67 0.0427 3.33 0 5-0.598-0.186-1.2-0.371-1.81-0.562-2.35-0.658-2.35-0.658-5.19 0.562-0.66-0.33-1.32-0.66-2-1v-3h-2v-2z" fill="#7067FD"/>
<path transform="translate(1159,65)" d="m0 0c2.77-0.027 5.54-0.0468 8.31-0.0625 0.786-0.00838 1.57-0.0168 2.38-0.0254 0.757-0.00322 1.51-0.00645 2.29-0.00977 0.696-0.00524 1.39-0.0105 2.11-0.0159 1.9 0.114 1.9 0.114 4.9 1.11v2h-15v-1c-1.65-0.33-3.3-0.66-5-1v-1z" fill="#534CC0"/>
<path transform="translate(724,67)" d="m0 0c0.33 0.66 0.66 1.32 1 2h2c-0.875 4.75-0.875 4.75-2 7h-2c-0.247-0.763-0.495-1.53-0.75-2.31-1.36-2.92-2.57-3.99-5.25-5.69 2.49-0.687 4.38-1 7-1zm-1 9c-0.33 0.99-0.66 1.98-1 3-0.99-0.66-1.98-1.32-3-2 2-1 2-1 4-1z" fill="#6861F2"/>
<path transform="translate(1216,98)" d="m0 0c0.981 3.05 0.981 4.95 0 8h-2v3h-2c-0.33 0.66-0.66 1.32-1 2-1.34-5.38-1.34-5.38 0.312-8.38 1.69-1.62 1.69-1.62 3.69-1.62 0.33-0.99 0.66-1.98 1-3z" fill="#6963F7"/>
<path transform="translate(582,176)" d="m0 0h10v4h-15v-1h5v-3z" fill="#6C66FE"/>
<path transform="translate(636,164)" d="m0 0h3c0.169 1.6 0.335 3.21 0.5 4.81 0.0928 0.893 0.186 1.79 0.281 2.71 0.219 2.48 0.219 2.48 0.219 5.48-1.32-0.33-2.64-0.66-4-1v-12z" fill="#6C66FD"/>
<path transform="translate(44,13)" d="m0 0c4.32 2.42 6.78 4.55 9 9-2.16-1-3.94-1.95-5.75-3.5-3.25-2.16-6.45-2.68-10.2-3.5v-2c2.79-1.39 4.02-0.879 7 0z" fill="#6C64FC"/>
<path transform="translate(26.4 10.8)" d="m0 0c0.782-0.0258 1.56-0.0516 2.37-0.0781 2.67 0.4 3.51 1.28 5.19 3.33-4.97 0.913-9.03 0.913-14 0v-2c2.33-1.16 3.85-1.2 6.44-1.25z" fill="#6C64FC"/>
<path transform="translate(186,176)" d="m0 0c0.99 0.33 1.98 0.66 3 1 4.09 1.19 7.76 1.15 12 1-1 2-1 2-3 3-4.56 0.258-7.88-0.00149-12-2v-3z" fill="#7067FD"/>
<path transform="translate(1313,130)" d="m0 0h2c0.326 4.67-0.294 7.17-3 11-1.32-0.33-2.64-0.66-4-1 0-3.52 0.704-4.44 3-7h2v-3z" fill="#6963F7"/>
<path transform="translate(431,97)" d="m0 0c0.577 0.186 1.15 0.371 1.75 0.562 2.24 0.605 2.24 0.605 4.38-0.125 0.619-0.144 1.24-0.289 1.88-0.438 2 2 2 2 2 5-0.664-0.0838-1.33-0.168-2.01-0.254-6.54-0.8-6.54-0.8-13 0.254v-2c0.639-0.124 1.28-0.248 1.94-0.375 1.02-0.309 1.02-0.309 2.06-0.625 0.33-0.66 0.66-1.32 1-2z" fill="#6C66FD"/>
<path transform="translate(870,65)" d="m0 0h14c0.33 1.32 0.66 2.64 1 4h-14c-0.33-1.32-0.66-2.64-1-4z" fill="#625AE4"/>
<path transform="translate(312,62)" d="m0 0c1.92-0.0542 3.83-0.0929 5.75-0.125 1.6-0.0348 1.6-0.0348 3.23-0.0703 2.94 0.19 4.54 0.669 7.02 2.2v3c0.66 0.33 1.32 0.66 2 1h-8v-3c-3.3-0.66-6.6-1.32-10-2v-1z" fill="#4742A7"/>
<path transform="translate(773,24)" d="m0 0c2.31 1.56 2.31 1.56 4 3-0.33 0.66-0.66 1.32-1 2h-2v-3c-0.897 0.278-0.897 0.278-1.81 0.562-2.19 0.438-2.19 0.438-5.19-0.562 0.309 1.42 0.309 1.42 0.625 2.88 0.124 1.03 0.247 2.06 0.375 3.12-0.66 0.66-1.32 1.32-2 2-0.33-3.3-0.66-6.6-1-10 3.37-1.12 4.64-0.982 8 0z" fill="#7067FD"/>
<path transform="translate(951,65)" d="m0 0h14c-0.33 0.99-0.66 1.98-1 3-9.41 1.33-9.41 1.33-14 0 0.33-0.99 0.66-1.98 1-3z" fill="#5F58DD"/>
<path transform="translate(649,9)" d="m0 0c4.99-0.293 7.96-0.0589 12 3v1c-10.6 0.185-10.6 0.185-15-1 0.99-0.33 1.98-0.66 3-1v-2z" fill="#6D65FD"/>
<path transform="translate(299,163)" d="m0 0h3c1.91 3.21 2.22 5.54 2.12 9.25-0.018 0.892-0.0361 1.78-0.0547 2.7-0.0348 1.01-0.0348 1.01-0.0703 2.05-0.99-0.33-1.98-0.66-3-1-0.73-1.85-0.73-1.85-1.19-4.06-0.159-0.733-0.317-1.47-0.48-2.22-0.11-0.566-0.219-1.13-0.332-1.71h2c-0.66-1.65-1.32-3.3-2-5z" fill="#6C65FD"/>
<path transform="translate(572,171)" d="m0 0c2 1 2 1 4 4 0.125 2.69 0.125 2.69 0 5-0.99 0.495-0.99 0.495-2 1-0.66-0.33-1.32-0.66-2-1-0.33 0.66-0.66 1.32-1 2-0.0269-1.65-0.0463-3.29-0.0625-4.94-0.0116-0.917-0.0232-1.83-0.0352-2.78 0.0977-2.29 0.0977-2.29 1.1-3.29z" fill="#6E66FD"/>
<path transform="translate(718,78)" d="m0 0c0.66 0.33 1.32 0.66 2 1v3c1.32 0.33 2.64 0.66 4 1-0.99 1.48-0.99 1.48-2 3v-2h-4c-0.33 0.66-0.66 1.32-1 2v-2c-0.99-0.33-1.98-0.66-3-1 1.75-3.88 1.75-3.88 4-5z" fill="#675FEF"/>
<path transform="translate(894,143)" d="m0 0c0.99 0.33 1.98 0.66 3 1v8c-1.32-0.99-2.64-1.98-4-3-0.33 0.33-0.66 0.66-1 1-1.68-0.286-3.34-0.618-5-1 0.639-0.103 1.28-0.206 1.94-0.312 0.681-0.227 1.36-0.454 2.06-0.688 0.33-0.99 0.66-1.98 1-3h2v-2z" fill="#7067FD"/>
<path transform="translate(304,163)" d="m0 0h3c1.91 3.21 2.22 5.54 2.12 9.25-0.018 0.892-0.0361 1.78-0.0547 2.7-0.0348 1.01-0.0348 1.01-0.0703 2.05-0.99-0.33-1.98-0.66-3-1 0.0206-0.763 0.0412-1.53 0.0625-2.31 0.0669-2.79 0.0669-2.79-1.06-5.69-0.348-1.66-0.684-3.33-1-5z" fill="#6C65FD"/>
<path transform="translate(470,79)" d="m0 0c1.94 0.812 1.94 0.812 4 2 0.33 0.99 0.66 1.98 1 3-2.91 1.26-4.8 2-8 2v-5c0.66-0.33 1.32-0.66 2-1 0.33-0.33 0.66-0.66 1-1z" fill="#6F66FD"/>
<path transform="translate(1431,69)" d="m0 0c1.32 1.32 2.64 2.64 4 4-3.64 2.43-5.71 2.16-10 2 1.05-2.62 1.65-3.79 4.12-5.25 0.619-0.248 1.24-0.495 1.88-0.75z" fill="#645CE8"/>
<path transform="translate(1447,122)" d="m0 0h3c0.0543 1.75 0.0929 3.5 0.125 5.25 0.0232 0.975 0.0464 1.95 0.0703 2.95-0.197 2.82-0.75 4.41-2.2 6.8-2.84-4.01-1.73-7.4-1-12v-3z" fill="#7067FD"/>
<path transform="translate(858,103)" d="m0 0c0.33 1.32 0.66 2.64 1 4h2v11h-3v-15z" fill="#6C66FE"/>
<path transform="translate(1179,67)" d="m0 0c3.27 0.974 4.76 1.69 6.88 4.44 1.12 2.56 1.12 2.56 0.125 5.56-0.371-0.619-0.743-1.24-1.12-1.88-2.36-2.68-4.48-3.22-7.88-4.12v-2h2v-2z" fill="#635CE7"/>
<path transform="translate(466,117)" d="m0 0c1.44 0.142 2.88 0.289 4.31 0.438 0.801 0.0812 1.6 0.162 2.43 0.246 2.26 0.316 2.26 0.316 5.26 1.32v2c-2.98 0.993-4.08 1.01-7.06 0.562-3.6-0.61-3.6-0.61-5.94-0.562 0.33-1.32 0.66-2.64 1-4z" fill="#6C66FE"/>
<path transform="translate(48,80)" d="m0 0h3c0.125 7.75 0.125 7.75-1 10h-3c-0.0269-1.48-0.0463-2.96-0.0625-4.44-0.0116-0.824-0.0232-1.65-0.0352-2.5 0.0977-2.07 0.0977-2.07 1.1-3.07z" fill="#7067FD"/>
<path transform="translate(1432,76)" d="m0 0h6v4c-1.46 0.222-2.92 0.427-4.38 0.625-0.812 0.116-1.62 0.232-2.46 0.352-0.714 0.00773-1.43 0.0155-2.16 0.0234-0.66-0.66-1.32-1.32-2-2 0.99-0.33 1.98-0.66 3-1 0.66 0.33 1.32 0.66 2 1v-3z" fill="#6D65FD"/>
<path transform="translate(439,71)" d="m0 0c5.61 0.33 11.2 0.66 17 1-0.33 0.66-0.66 1.32-1 2h-17c0.33-0.99 0.66-1.98 1-3z" fill="#7067FD"/>
<path transform="translate(1273,196)" d="m0 0c2 3.75 2 3.75 2 6h5v1h-11c0.959-3.84 1.24-4.6 4-7z" fill="#6C66FD"/>
<path transform="translate(1308,122)" d="m0 0h5v3c0.66 0.33 1.32 0.66 2 1-0.66 2.31-1.32 4.62-2 7h-2c-0.133-0.626-0.266-1.25-0.402-1.9-0.177-0.817-0.353-1.63-0.535-2.48-0.261-1.22-0.261-1.22-0.527-2.46-0.458-2.19-0.458-2.19-1.54-4.16z" fill="#6C66FD"/>
<path transform="translate(402,68)" d="m0 0c1.5 1.31 1.5 1.31 3 3v3c-2.31-0.33-4.62-0.66-7-1-0.33-0.99-0.66-1.98-1-3 1.65-0.66 3.3-1.32 5-2z" fill="#625BE4"/>
<path transform="translate(1387,172)" d="m0 0c0.33 1.98 0.66 3.96 1 6-0.598-0.186-1.2-0.371-1.81-0.562-2.35-0.658-2.35-0.658-5.19 0.562v-4c3.75-2 3.75-2 6-2z" fill="#6C65FD"/>
<path transform="translate(340,155)" d="m0 0h3c3.39 5.37 3.33 9.87 3 16h-1c-0.66-3.96-1.32-7.92-2-12h-2c-0.33-1.32-0.66-2.64-1-4z" fill="#6D65FC"/>
<path transform="translate(1299,76)" d="m0 0c0.33 0.66 0.66 1.32 1 2-1.41 0.224-2.83 0.428-4.25 0.625-0.789 0.116-1.58 0.232-2.39 0.352-2.68 0.0266-4.09-0.611-6.36-1.98 4.31-2.22 7.31-2.08 12-1z" fill="#6D65FD"/>
<path transform="translate(632,15)" d="m0 0h4c-0.33 1.32-0.66 2.64-1 4h-3v4c-0.99 0.33-1.98 0.66-3 1 0.557-3.34 1.35-6.03 3-9z" fill="#6D65FD"/>
<path transform="translate(670,105)" d="m0 0h2c1.61 3.21 1.06 6.44 1 10h-3c-1.24-3.58-0.749-6.34 0-10z" fill="#7067FD"/>
<path transform="translate(1037,186)" d="m0 0h10v2c-6.62 2.12-6.62 2.12-10 1v-3z" fill="#6C66FE"/>
<path transform="translate(1123,184)" d="m0 0c-1.43 5.01-3.98 6.94-8 10 0.385-4.49 2.85-10 8-10z" fill="#6D65FD"/>
<path transform="translate(1286 109)" d="m0 0c0.722 0.846 1.44 1.69 2.19 2.56-3.11 0-5.94-0.456-9-1-0.33-0.99-0.66-1.98-1-3 3.88-1.44 4.57-1.37 7.81 1.44z" fill="#7067FD"/>
<path transform="translate(749,108)" d="m0 0h3v9c-0.99 0.33-1.98 0.66-3 1v-10z" fill="#6C66FE"/>
<path transform="translate(600,94)" d="m0 0h2c0.66 2.97 1.32 5.94 2 9-1.98 0.99-1.98 0.99-4 2v-11z" fill="#7067FD"/>
<path transform="translate(1037,191)" d="m0 0h10v2c-3.66 0.749-6.42 1.24-10 0v-2z" fill="#6C66FE"/>
<path transform="translate(768,89)" d="m0 0c2.75 2.44 2.75 2.44 5 5-2.97-0.33-5.94-0.66-9-1v-3c1.69-0.812 1.69-0.812 4-1z" fill="#645DEA"/>
<path transform="translate(855,77)" d="m0 0c1.24 3.58 0.749 6.34 0 10h-1v-6h-2v5h-1c-0.25-2.81-0.25-2.81 0-6 2-1.88 2-1.88 4-3z" fill="#6C66FD"/>
<path transform="translate(676,171)" d="m0 0h1v9h-1v-9z" fill="#0F0F1E"/>
</svg>
